<?xml version="1.0" encoding="utf-8"?>
<svg xmlns="http://www.w3.org/2000/svg" xmlns:xlink="http://www.w3.org/1999/xlink" version= "1.1" width="1146px" height="818px" viewBox="-213 302 1146 818">
<g id="layer1">
<g style="fill:rgb(0,174,199); fill-opacity:1.0; stroke-linejoin: miter">
<path d="M-213.00098,300.7515C-213.33183,300.7515,-213.64914,300.88293,-213.88309,301.11688C-214.11703,301.35083,-214.24847,301.66812,-214.24847,301.999L-214.24747,1120.0C-214.24747,1120.689,-213.68895,1121.2476,-212.99997,1121.2476L933.001,1121.2485C933.3319,1121.2485,933.6492,1121.1171,933.8832,1120.883C934.11707,1120.649,934.24854,1120.3318,934.24854,1120.001L934.24756,302.0C934.24756,301.31104,933.68896,300.7525,933.0,300.7525L-213.00098,300.7515 Z"/>
</g>
<g style="fill:rgb(0,0,0); fill-opacity:0.5019608; stroke-linejoin: miter">
<path d="M835.64044,1032.0381L831.30194,1033.4905Q800.4567,1037.879,650.7965,1040.5105Q500.10065,1043.1396,295.8874,1042.6428Q100.99219,1041.9484,-15.858154,1038.5779Q-53.29825,1037.4884,-77.53656,1036.2037L-97.908264,1034.8832Q-114.696335,1033.52,-114.8851,1032.0381Q-109.78873,1027.4901,24.316132,1024.4702Q158.42102,1021.4503,360.3777,1021.3356Q562.3343,1021.4503,696.43915,1024.4702Q830.5441,1027.4901,835.64044,1032.0381"/>
</g>
<g style="fill:rgb(0,0,0); fill-opacity:1.0; stroke-linejoin: miter">
<path d="M494.29352,887.8828L551.4887,887.88306L608.68414,887.88354Q608.68414,960.12463,608.68414,1032.3655Q551.4887,1032.3655,494.2934,1032.366Q494.29352,960.1244,494.29352,887.8828 Z"/>
</g>
<g style="fill:rgb(0,0,0); fill-opacity:1.0; stroke-linejoin: miter">
<path d="M285.73358,574.7213L552.32587,574.7218L818.9183,574.7223Q818.9183,748.08057,818.9183,921.4387Q552.32587,921.4387,285.7334,921.43896Q285.73346,748.0801,285.73358,574.7213 Z"/>
</g>
<g style="fill:rgb(255,255,255); fill-opacity:1.0; stroke-linejoin: miter">
<path d="M299.2635,590.36926L552.32587,590.3695L805.38837,590.37024Q805.38824,747.13904,805.38824,903.9081Q552.32587,903.9081,299.26337,903.90857Q299.2635,747.1388,299.2635,590.36926 Z"/>
</g>
<g style="fill:rgb(0,0,0); fill-opacity:1.0; stroke-linejoin: miter">
<path d="M412.10657,1016.54175L551.4887,1016.5427L690.8709,1016.5432Q690.8709,1027.6333,690.8709,1038.7229Q551.4887,1038.7233,412.10645,1038.7238Q412.10645,1027.633,412.10657,1016.54175 Z"/>
</g>
<g style="fill:rgb(255,255,255); fill-opacity:1.0; stroke-linejoin: miter">
<path d="M636.8965,493.76184L636.8965,493.76184L636.8965,493.7621L636.8965,493.76184L636.8965,493.76184L636.8965,493.76184L636.8965,493.7621Q636.8965,493.76184,636.8965,493.76184 Z"/>
</g>
<g style="fill:rgb(230,230,230); fill-opacity:1.0; stroke-linejoin: miter">
<path d="M338.39368,779.0301L439.8094,779.0308L439.8094,793.5358L338.39365,793.53644L338.39368,779.0301 Z M338.39368,779.0301L439.8094,779.0308L439.8094,793.5358L338.39365,793.53644L338.39368,779.0301 Z M338.39368,779.0301L439.8094,779.0308L439.8094,793.5358L338.39365,793.53644L338.39368,779.0301 Z M338.39368,779.0301L439.8094,779.0308L439.8094,793.5358L338.39365,793.53644L338.39368,779.0301 Z"/>
</g>
<g style="fill:rgb(230,230,230); fill-opacity:1.0; stroke-linejoin: miter">
<path d="M338.39362,807.9181L415.71545,807.9188L415.71545,822.4237L338.39362,822.42444L338.39362,807.9181 Z M338.39362,807.9181L415.71545,807.9188L415.71545,822.4237L338.39362,822.42444L338.39362,807.9181 Z M338.39362,807.9181L415.71545,807.9188L415.71545,822.4237L338.39362,822.42444L338.39362,807.9181 Z M338.39362,807.9181L415.71545,807.9188L415.71545,822.4237L338.39362,822.42444L338.39362,807.9181 Z"/>
</g>
<g style="fill:rgb(230,230,230); fill-opacity:1.0; stroke-linejoin: miter">
<path d="M338.39362,832.1354L439.80933,832.13586L439.80933,846.64075L338.39362,846.64124L338.39362,832.1354 Z M338.39362,832.1354L439.80933,832.13586L439.80933,846.64075L338.39362,846.64124L338.39362,832.1354 Z M338.39362,832.1354L439.80933,832.13586L439.80933,846.64075L338.39362,846.64124L338.39362,832.1354 Z M338.39362,832.1354L439.80933,832.13586L439.80933,846.64075L338.39362,846.64124L338.39362,832.1354 Z"/>
</g>
<g style="fill:rgb(230,230,230); fill-opacity:1.0; stroke-linejoin: miter">
<path d="M338.39362,861.1461L439.80933,861.1466L439.80933,870.85754L338.39362,870.85803L338.39362,861.1461 Z M338.39362,861.1461L439.80933,861.1466L439.80933,870.85754L338.39362,870.85803L338.39362,861.1461 Z M338.39362,861.1461L439.80933,861.1466L439.80933,870.85754L338.39362,870.85803L338.39362,861.1461 Z M338.39362,861.1461L439.80933,861.1466L439.80933,870.85754L338.39362,870.85803L338.39362,861.1461 Z"/>
</g>
<g style="fill:rgb(230,230,230); fill-opacity:1.0; stroke-linejoin: miter">
<path d="M454.1919,807.9181L531.51373,807.9188L531.51373,822.4237L454.1919,822.42444L454.1919,807.9181 Z M454.1919,807.9181L531.51373,807.9188L531.51373,822.4237L454.1919,822.42444L454.1919,807.9181 Z M454.1919,807.9181L531.51373,807.9188L531.51373,822.4237L454.1919,822.42444L454.1919,807.9181 Z M454.1919,807.9181L531.51373,807.9188L531.51373,822.4237L454.1919,822.42444L454.1919,807.9181 Z"/>
</g>
<g style="fill:rgb(230,230,230); fill-opacity:1.0; stroke-linejoin: miter">
<path d="M454.1919,832.1354L555.6076,832.13586L555.6076,846.64075L454.1919,846.64124L454.1919,832.1354 Z M454.1919,832.1354L555.6076,832.13586L555.6076,846.64075L454.1919,846.64124L454.1919,832.1354 Z M454.1919,832.1354L555.6076,832.13586L555.6076,846.64075L454.1919,846.64124L454.1919,832.1354 Z M454.1919,832.1354L555.6076,832.13586L555.6076,846.64075L454.1919,846.64124L454.1919,832.1354 Z"/>
</g>
<g style="fill:rgb(230,230,230); fill-opacity:1.0; stroke-linejoin: miter">
<path d="M454.1919,861.1461L555.6076,861.1466L555.6076,870.85754L454.1919,870.85803L454.1919,861.1461 Z M454.1919,861.1461L555.6076,861.1466L555.6076,870.85754L454.1919,870.85803L454.1919,861.1461 Z M454.1919,861.1461L555.6076,861.1466L555.6076,870.85754L454.1919,870.85803L454.1919,861.1461 Z M454.1919,861.1461L555.6076,861.1466L555.6076,870.85754L454.1919,870.85803L454.1919,861.1461 Z"/>
</g>
<g style="fill:rgb(255,255,255); fill-opacity:1.0; stroke-linejoin: miter">
<path d="M739.3044,668.1185C735.3001,668.1185,730.8768,664.84216,730.8768,660.8375L730.8768,591.67004L804.83136,668.1185L739.3044,668.11926 Z"/>
</g>
<g style="fill:rgb(230,230,230); fill-opacity:1.0; stroke-linejoin: miter">
<path d="M610.7259,744.5665L770.9029,744.567L770.9029,751.8474L610.7259,751.8479L610.7259,744.5665 Z M610.7259,744.5665L770.9029,744.567L770.9029,751.8474L610.7259,751.8479L610.7259,744.5665 Z M610.7259,744.5665L770.9029,744.567L770.9029,751.8474L610.7259,751.8479L610.7259,744.5665 Z M610.7259,744.5665L770.9029,744.567L770.9029,751.8474L610.7259,751.8479L610.7259,744.5665 Z"/>
</g>
<g style="fill:rgb(179,179,179); fill-opacity:1.0; stroke-linejoin: miter">
<path d="M610.7259,759.1279L741.77997,759.1289L741.77997,762.76843L610.7259,762.76917L610.7259,759.1279 Z M610.7259,759.1279L741.77997,759.1289L741.77997,762.76843L610.7259,762.76917L610.7259,759.1279 Z M610.7259,759.1279L741.77997,759.1289L741.77997,762.76843L610.7259,762.76917L610.7259,759.1279 Z M610.7259,759.1279L741.77997,759.1289L741.77997,762.76843L610.7259,762.76917L610.7259,759.1279 Z"/>
</g>
<g style="fill:rgb(179,179,179); fill-opacity:1.0; stroke-linejoin: miter">
<path d="M650.77026,839.21643L767.2625,839.2174L767.2625,842.85693L650.77026,842.85767L650.77026,839.21643 Z M650.77026,839.21643L767.2625,839.2174L767.2625,842.85693L650.77026,842.85767L650.77026,839.21643 Z M650.77026,839.21643L767.2625,839.2174L767.2625,842.85693L650.77026,842.85767L650.77026,839.21643 Z M650.77026,839.21643L767.2625,839.2174L767.2625,842.85693L650.77026,842.85767L650.77026,839.21643 Z"/>
</g>
<g style="fill:rgb(179,179,179); fill-opacity:1.0; stroke-linejoin: miter">
<path d="M650.77026,850.1377L767.2625,850.1384L767.2625,853.77844L650.77026,853.77893L650.77026,850.1377 Z M650.77026,850.1377L767.2625,850.1384L767.2625,853.77844L650.77026,853.77893L650.77026,850.1377 Z M650.77026,850.1377L767.2625,850.1384L767.2625,853.77844L650.77026,853.77893L650.77026,850.1377 Z M650.77026,850.1377L767.2625,850.1384L767.2625,853.77844L650.77026,853.77893L650.77026,850.1377 Z"/>
</g>
<g style="fill:rgb(179,179,179); fill-opacity:1.0; stroke-linejoin: miter">
<path d="M650.77026,871.9801L767.2625,871.98083L767.2625,875.6206L650.77026,875.62134L650.77026,871.9801 Z M650.77026,871.9801L767.2625,871.98083L767.2625,875.6206L650.77026,875.62134L650.77026,871.9801 Z M650.77026,871.9801L767.2625,871.98083L767.2625,875.6206L650.77026,875.62134L650.77026,871.9801 Z M650.77026,871.9801L767.2625,871.98083L767.2625,875.6206L650.77026,875.62134L650.77026,871.9801 Z"/>
</g>
<g style="fill:rgb(179,179,179); fill-opacity:1.0; stroke-linejoin: miter">
<path d="M650.77026,882.90137L767.2625,882.902L767.2625,886.54175L650.77026,886.5425L650.77026,882.90137 Z M650.77026,882.90137L767.2625,882.902L767.2625,886.54175L650.77026,886.5425L650.77026,882.90137 Z M650.77026,882.90137L767.2625,882.902L767.2625,886.54175L650.77026,886.5425L650.77026,882.90137 Z M650.77026,882.90137L767.2625,882.902L767.2625,886.54175L650.77026,886.5425L650.77026,882.90137 Z"/>
</g>
<g style="fill:rgb(179,179,179); fill-opacity:1.0; stroke-linejoin: miter">
<path d="M610.7259,770.0492L763.62213,770.0499L763.62213,773.6897L610.7259,773.6902L610.7259,770.0492 Z M610.7259,770.0492L763.62213,770.0499L763.62213,773.6897L610.7259,773.6902L610.7259,770.0492 Z M610.7259,770.0492L763.62213,770.0499L763.62213,773.6897L610.7259,773.6902L610.7259,770.0492 Z M610.7259,770.0492L763.62213,770.0499L763.62213,773.6897L610.7259,773.6902L610.7259,770.0492 Z"/>
</g>
<g style="fill:rgb(179,179,179); fill-opacity:1.0; stroke-linejoin: miter">
<path d="M610.7259,780.97034L698.09515,780.97107L698.09515,784.61084L610.7259,784.6116L610.7259,780.97034 Z M610.7259,780.97034L698.09515,780.97107L698.09515,784.61084L610.7259,784.6116L610.7259,780.97034 Z M610.7259,780.97034L698.09515,780.97107L698.09515,784.61084L610.7259,784.6116L610.7259,780.97034 Z M610.7259,780.97034L698.09515,780.97107L698.09515,784.61084L610.7259,784.6116L610.7259,780.97034 Z"/>
</g>
<g style="fill:rgb(146,159,168); fill-opacity:1.0; stroke-linejoin: miter">
<path d="M590.3138,610.8165L683.7895,610.81726L777.2651,610.8175Q777.2651,660.7412,777.2651,710.6648Q683.7895,710.6653,590.3138,710.6655Q590.3138,660.7412,590.3138,610.8165"/>
</g>
<g style="fill:rgb(60,70,79); fill-opacity:1.0; stroke-linejoin: miter">
<path d="M426.94434,601.2085L423.3954,621.4249L423.4093,621.4385C419.07092,622.1472,414.87347,623.28345,410.86444,624.7965L410.86444,624.78296L397.69177,609.0438L385.31073,616.1968L392.34076,635.47107L392.36792,635.4846C389.0114,638.23987,385.93488,641.327,383.18115,644.6852L383.16766,644.64417L363.8933,637.61414L356.74042,649.9951L372.4792,663.1819C370.96875,667.18787,369.84265,671.37866,369.13507,675.71326L369.12103,675.6997L348.90485,679.2488L348.90485,693.5543L369.1211,697.1035L369.13507,697.08997C369.84277,701.4241,370.9688,705.61523,372.4793,709.62134L356.74042,722.8074L363.89325,735.1885L383.16766,728.15845L383.18115,728.1173C385.93488,731.475,389.0114,734.5625,392.36792,737.31775L392.34076,737.3314L385.31073,756.60596L397.6917,763.7589L410.86438,748.0199L410.86438,748.00586C414.87335,749.51904,419.07086,750.65515,423.40924,751.36414L423.39526,751.37756L426.94434,771.594L441.2365,771.5945L444.78552,751.3777L444.77197,751.36414C449.10913,750.6575,453.30774,749.5305,457.31683,748.02L470.50293,763.7589L482.88397,756.60596L475.84033,737.3314C479.1894,734.5835,482.2641,731.5065,485.01343,728.15845L504.3014,735.1886L511.44067,722.8074L495.71545,709.621C497.22638,705.61487,498.3656,701.4249,499.07312,697.08997L519.28973,693.5547L519.28986,679.249L499.07318,675.6998C498.3651,671.3696,497.2246,667.18445,495.7154,663.1824L511.44067,649.9957L504.30145,637.61475L485.01343,644.6448C482.26416,641.29663,479.18945,638.2202,475.8404,635.4718L482.88403,616.1968L470.503,609.0442L457.31696,624.78345C453.3078,623.2727,449.10925,622.1461,444.7721,621.4392L444.78564,621.42566L441.2365,601.20874L426.94434,601.2092 Z M434.09723,636.01733C461.92657,636.01733,484.49683,658.57214,484.49683,686.3998C484.49683,714.2291,461.9287,736.7816,434.09717,736.7816C406.2677,736.7816,383.71497,714.2273,383.7151,686.3998C383.71503,658.5702,406.26904,636.0172,434.09723,636.01733 Z"/>
</g>
<g style="fill:rgb(60,70,79); fill-opacity:1.0; stroke-linejoin: miter">
<path d="M342.5335,698.7499L342.5335,698.7499L330.46936,706.896L330.46936,706.896L314.8357,717.4516C313.35498,718.4515,311.45398,718.5881,309.8454,717.81L309.8454,717.81L292.94382,709.6347C291.32202,708.8497,290.24557,707.2556,290.12393,705.4581L290.12393,705.4581L288.85706,686.7265C288.73642,684.94336,289.57358,683.231,291.05435,682.2314L291.05435,682.2314L306.68787,671.676L306.68787,671.676L318.74976,663.5318L318.74976,663.5318C317.44147,664.4149,316.05438,666.9477,317.7049,669.3922L317.7047,669.3918C318.06967,669.9323,318.49725,670.29456,318.8616,670.52563L318.8616,670.52563C305.89417,662.309,289.1603,662.53424,276.2771,671.23065L276.2798,671.2289C264.04028,679.5017,257.5463,693.9092,259.40295,708.39185L259.40295,708.39185C259.72247,710.8854,258.57922,713.6495,256.36652,715.1434L256.36627,715.14355L175.77779,769.55695L175.77779,769.55695C171.2715,772.59955,169.64574,780.05743,174.18498,786.78L174.18498,786.78C178.72424,793.5026,186.24925,794.78204,190.7555,791.7393L190.75558,791.73944L271.3442,737.32605L271.3442,737.32605C273.55762,735.8312,276.549,735.8045,278.74207,737.0327L278.74207,737.0327C291.48148,744.16724,307.27203,743.5277,319.51984,735.267L319.51764,735.2686C332.40005,726.5696,338.8633,711.13196,336.0879,696.03265L336.08795,696.0324C336.3953,697.70447,338.24118,699.86597,341.04163,699.3516L341.0418,699.3516C341.67914,699.2344,342.17926,698.9892,342.5337,698.74963L344.65057,695.5482L344.65057,695.5482C344.39746,696.8537,343.63586,698.00555,342.5335,698.7499L342.5335,698.7499 M336.9206,690.4373L334.80334,693.6394L334.80334,693.6394C335.05664,692.33356,335.81805,691.18176,336.9202,690.43774L336.9202,690.43774C337.5501,690.01227,338.32596,689.65216,339.22845,689.48627L339.22864,689.4864C342.87775,688.81586,345.4539,691.50085,345.95337,694.21936L345.95322,694.21936C349.45273,713.2578,341.30078,732.6624,325.13098,743.58075L325.12878,743.5824C309.75464,753.9522,289.89935,754.7776,273.84085,745.7837L273.84085,745.7838C274.816,746.3303,275.9007,746.352,276.95715,745.63837L276.95715,745.63837L196.36859,800.0518L196.36859,800.0518C186.20695,806.9133,172.74026,802.56415,165.87216,792.393L165.87216,792.393C159.00404,782.22144,160.00334,768.1053,170.16484,761.2441L170.16484,761.2441L250.75323,706.83154L250.75296,706.8316C249.69708,707.54456,249.3117,708.5585,249.45369,709.6675L249.45369,709.6675C247.11359,691.41144,255.29904,673.3036,270.6628,662.91907L270.66516,662.9176C286.83582,652.0017,307.87988,651.6927,324.23032,662.053L324.2301,662.05286C324.86853,662.4573,325.5064,663.0216,326.01813,663.7794L326.0179,663.7794C328.15344,666.9418,326.55884,670.3614,324.3626,671.8443L324.3626,671.8443L312.30087,679.98834L312.30087,679.98834L296.6674,690.54364L298.86465,686.0497L300.1316,704.7816L297.3115,700.6052L314.2132,708.78076L309.22284,709.1386L324.85632,698.58344L324.85632,698.58344L336.9206,690.4373 Z"/>
</g>
<g style="fill:rgb(255,177,133); fill-opacity:1.0; stroke-linejoin: miter">
<path d="M251.71655,782.622Q252.43608,784.04785,252.71634,785.1216Q256.14642,793.52936,249.5922,800.41876Q245.36397,805.6171,222.23058,814.79175L221.69675,816.6435Q217.54445,831.62103,212.07101,834.5162Q206.25015,838.2302,194.17094,838.6284Q180.63275,849.9223,170.70744,851.89166Q164.29332,852.8572,157.88467,850.57166Q153.49625,849.4477,140.5823,842.2746Q130.02054,841.1946,125.86468,839.2563Q120.932785,837.0418,118.78594,834.92365Q114.45372,830.8082,111.25459,824.4672Q105.75905,813.5749,103.607254,796.1146Q99.330666,768.0301,97.067184,706.15924L172.503,669.7453L191.03618,706.6124L216.53468,713.9427Q222.74895,743.35944,227.66597,753.10565Q228.02664,753.82025,228.38037,754.429Q230.90855,759.11066,233.83206,762.2968Q246.6838,774.51,247.19656,775.52606Q247.25256,775.63727,247.16116,775.6145Q250.2955,779.8054,251.71655,782.622 Z"/>
</g>
<g style="fill:rgb(255,255,255); fill-opacity:1.0; stroke-linejoin: miter">
<path d="M157.63625,640.4917L170.32715,665.64825L183.01889,690.80426Q135.01794,715.02124,87.01691,739.2389Q74.32453,714.08295,61.632347,688.9271Q109.63429,664.7095,157.63625,640.4917 Z"/>
</g>
<g style="fill:rgb(0,0,0); fill-opacity:1.0; stroke-linejoin: miter">
<path d="M33.812572,659.9194L90.1848,632.28064L146.55702,604.6419Q162.86981,637.9131,179.18262,671.18427L66.43894,726.4632Q50.12577,693.1913,33.812572,659.9194"/>
</g>
<g style="fill:rgb(83,93,102); fill-opacity:1.0; stroke-linejoin: miter">
<path d="M298.1495,664.2386C290.4767,664.2386,282.78647,666.48584,276.12024,670.9846L276.11914,670.9846C276.1172,670.98584,276.11523,670.9871,276.1133,670.9884C263.78442,679.3231,257.24225,693.83734,259.1129,708.429C259.41904,710.818,258.3199,713.47174,256.20288,714.901L256.20248,714.9013L222.17537,737.87726L222.17479,737.87726C222.14278,737.8981,222.11458,737.9253,222.0923,737.95807L222.0917,737.9589C222.03596,738.04095,222.02705,738.14246,222.06119,738.22986L222.06062,738.22986Q224.89725,748.26685,227.40489,753.23737L227.40489,753.2374Q227.76949,753.9598,228.12756,754.576L228.12738,754.576Q230.671,759.2843,233.61661,762.4945L233.63065,762.5088Q233.73758,762.6104,233.84958,762.7177C233.90509,762.771,233.97797,762.7991,234.05197,762.7991C234.09068,762.7991,234.1297,762.7914,234.16669,762.7756C234.18832,762.76636,234.20847,762.75476,234.2268,762.741L234.2261,762.741L271.5078,737.5684L271.50787,737.56836C272.6268,736.8127,273.9588,736.44714,275.28015,736.44714C276.45468,736.44714,277.61377,736.736,278.59918,737.28784C284.51596,740.60144,291.08615,742.2508,297.65805,742.2508C305.3424,742.2508,313.0302,739.99603,319.6809,735.51196C319.6814,735.51166,319.6819,735.51135,319.6823,735.511L319.68127,735.511C330.75638,728.0324,337.12274,715.60974,337.0142,702.6737C337.01324,702.5635,336.95044,702.46313,336.85175,702.4142L336.84998,702.4133C336.8089,702.39294,336.76434,702.3829,336.71997,702.3829C336.66266,702.3829,336.60553,702.3997,336.5564,702.4329L330.3057,706.6536L330.3057,706.6536L314.67206,717.2092L314.67206,717.2092C313.87793,717.7455,312.95578,718.018,312.02887,718.018C311.32782,718.018,310.62524,717.86237,309.97275,717.54675L293.07114,709.37146L293.0712,709.37146C291.5439,708.6322,290.53024,707.1312,290.4157,705.43835L289.14883,686.7068C289.03525,685.0278,289.82358,683.4151,291.21793,682.47375L291.218,682.47375L306.85144,671.9184L306.85144,671.9184L313.10126,667.69934L313.1015,667.69934C313.18805,667.64154,313.2378,667.5416,313.2309,667.4368C313.2236,667.3256,313.1537,667.2283,313.05066,667.1858C308.29132,665.2214,303.2237,664.2386,298.1495,664.2386 Z"/>
</g>
</g>
</svg>