<?xml version="1.0" encoding="utf-8"?>
<svg xmlns="http://www.w3.org/2000/svg" xmlns:xlink="http://www.w3.org/1999/xlink" version= "1.1" width="1629px" height="1164px" viewBox="-275 482 1629 1164">
<g id="layer1">
<g style="fill:rgb(0,183,217); fill-opacity:1.0; stroke-linejoin: miter">
<path d="M-275.001,480.98444C-275.27008,480.98444,-275.52814,481.0913,-275.7184,481.2816C-275.9087,481.47186,-276.01556,481.72992,-276.01556,481.999L-276.01456,1646.0C-276.01456,1646.5603,-275.56033,1647.0145,-275.0,1647.0145L1354.001,1647.0155C1354.27,1647.0155,1354.5281,1646.9087,1354.7184,1646.7184C1354.9087,1646.5281,1355.0155,1646.27,1355.0155,1646.001L1355.0145,482.0C1355.0145,481.43967,1354.5603,480.98544,1354.0,480.98544L-275.001,480.98444 Z"/>
</g>
<g style="fill:rgb(255,255,255); fill-opacity:1.0; stroke-linejoin: miter">
<path d="M194.99988,761.6015L195.00009,1409.8947L700.27856,1409.8947L700.27795,761.6019L194.99988,761.6015 Z"/>
</g>
<g style="fill:rgb(255,255,255); fill-opacity:1.0; stroke-linejoin: miter">
<path d="M203.48291,784.3973L199.84314,1353.2692L695.67834,1353.2673L699.2991,787.5673L203.48291,784.3973 Z"/>
</g>
<g style="fill:rgb(255,255,255); fill-opacity:1.0; stroke-linejoin: miter">
<path d="M553.07214,801.931L229.73302,799.86414C223.01909,799.8193,217.48643,805.2758,217.44304,811.9918C217.40007,818.70526,222.86261,824.2391,229.57654,824.2818L552.91797,826.3519C559.6383,826.39307,565.1709,820.93604,565.21436,814.21643C565.25525,807.50244,559.7927,801.9737,553.07214,801.931 Z"/>
</g>
<g style="fill:rgb(255,255,255); fill-opacity:1.0; stroke-linejoin: miter">
<path d="M594.87195,803.9741C600.62915,804.01166,605.27185,808.7115,605.23425,814.4766C605.19775,820.2331,600.49756,824.876,594.7388,824.8389C588.9712,824.8031,584.333,820.10126,584.36975,814.34174C584.4064,808.5831,589.1068,803.9374,594.87195,803.9741 Z"/>
</g>
<g style="fill:rgb(255,255,255); fill-opacity:1.0; stroke-linejoin: miter">
<path d="M633.90393,804.22406C639.66504,804.26135,644.3036,808.96075,644.2665,814.7258C644.22986,820.48303,639.52954,825.12524,633.771,825.0884C628.0093,825.0518,623.37146,820.35095,623.40784,814.59235C623.4447,808.834,628.14307,804.1871,633.90393,804.22406 Z"/>
</g>
<g style="fill:rgb(255,255,255); fill-opacity:1.0; stroke-linejoin: miter">
<path d="M672.9381,804.47327C678.6987,804.5096,683.3373,809.2105,683.3008,814.9754C683.26355,820.73267,678.5636,825.37585,672.80457,825.3381C667.0436,825.3016,662.405,820.6016,662.44226,814.8423C662.4789,809.0837,667.1791,804.43695,672.9381,804.47327 Z"/>
</g>
<g style="fill:rgb(236,240,241); fill-opacity:1.0; stroke-linejoin: miter">
<path d="M234.00856,872.39233L446.91196,873.7561L445.30414,1124.981L232.40123,1123.6213L234.00856,872.39233 Z"/>
</g>
<g style="fill:rgb(236,240,241); fill-opacity:1.0; stroke-linejoin: miter">
<path d="M473.1737,873.94293L473.11038,883.79865L656.2074,884.96783L656.27026,875.11444L473.1737,873.94293 Z"/>
</g>
<g style="fill:rgb(236,240,241); fill-opacity:1.0; stroke-linejoin: miter">
<path d="M472.91254,914.74677L472.8493,924.60126L655.9463,925.76996L656.0093,915.9155L472.91254,914.74677 Z"/>
</g>
<g style="fill:rgb(236,240,241); fill-opacity:1.0; stroke-linejoin: miter">
<path d="M472.6515,955.54663L472.5884,965.4033L619.46533,966.3412L619.52905,956.48645L472.6515,955.54663 Z"/>
</g>
<g style="fill:rgb(236,240,241); fill-opacity:1.0; stroke-linejoin: miter">
<path d="M472.39087,996.3485L472.32773,1006.20544L655.4241,1007.3744L655.48706,997.5196L472.39087,996.3485 Z"/>
</g>
<g style="fill:rgb(236,240,241); fill-opacity:1.0; stroke-linejoin: miter">
<path d="M472.12967,1037.1484L472.06683,1047.005L655.1631,1048.1743L655.22644,1038.3193L472.12967,1037.1484 Z"/>
</g>
<g style="fill:rgb(236,240,241); fill-opacity:1.0; stroke-linejoin: miter">
<path d="M471.8688,1077.9545L471.8373,1082.8807L471.8058,1087.8068Q523.2456,1088.1353,574.68567,1088.4635L574.7488,1078.6143Q523.30835,1078.2839,471.8688,1077.9545 Z"/>
</g>
<g style="fill:rgb(236,240,241); fill-opacity:1.0; stroke-linejoin: miter">
<path d="M232.2308,1150.246L232.16756,1160.1018L605.43665,1162.4867L605.4999,1152.6329L232.2308,1150.246 Z"/>
</g>
<g style="fill:rgb(236,240,241); fill-opacity:1.0; stroke-linejoin: miter">
<path d="M231.9697,1191.0466L231.90642,1200.9043L605.1754,1203.2888L605.2385,1193.4344L231.9697,1191.0466 Z"/>
</g>
<g style="fill:rgb(236,240,241); fill-opacity:1.0; stroke-linejoin: miter">
<path d="M231.70859,1231.8496L231.64557,1241.7056L531.07776,1243.6193L531.14087,1233.7644L231.70859,1231.8496 Z"/>
</g>
<g style="fill:rgb(236,240,241); fill-opacity:1.0; stroke-linejoin: miter">
<path d="M231.44725,1272.6519L231.38445,1282.5083L604.65356,1284.8931L604.7163,1275.0385L231.44725,1272.6519 Z"/>
</g>
<g style="fill:rgb(236,240,241); fill-opacity:1.0; stroke-linejoin: miter">
<path d="M231.18616,1313.453L231.12337,1323.31L604.39233,1325.6953L604.4558,1315.8408L231.18616,1313.453 Z"/>
</g>
<g style="fill:rgb(236,240,241); fill-opacity:1.0; stroke-linejoin: miter">
<path d="M472.91254,914.7445L472.91254,914.74585L472.91254,914.74677Q472.91254,914.74677,472.91254,914.74677L472.91254,914.74677Q472.91254,914.74585,472.91254,914.7445 Z"/>
</g>
<g style="fill:rgb(255,255,255); fill-opacity:1.0; stroke-linejoin: miter">
<path d="M210.84264,784.12427L415.83408,784.1261L620.8253,784.1247Q620.8248,799.32025,620.8248,814.5161Q415.83344,814.5165,210.8424,814.51746Q210.84264,799.32025,210.84264,784.12427 Z"/>
</g>
<g style="fill:rgb(255,255,255); fill-opacity:1.0; stroke-linejoin: miter">
<path d="M628.99646,787.25854L648.86694,787.25854L668.7373,787.25903Q668.7373,799.32025,668.7373,811.38226Q648.86694,811.38226,628.99646,811.38226Q628.99646,799.32025,628.99646,787.25854 Z"/>
</g>
<g style="fill:rgb(0,0,0); fill-opacity:1.0; stroke-linejoin: miter">
<path d="M472.59735,961.01935L472.59735,961.0204L472.59735,961.0213L472.59735,961.0204L472.59735,961.01935L472.59735,961.0204L472.59735,961.0213Q472.59735,961.0204,472.59735,961.01935 Z"/>
</g>
<g style="fill:rgb(0,0,0); fill-opacity:1.0; stroke-linejoin: miter">
<path d="M472.59735,961.01935L472.59735,961.0204L472.59735,961.0213L472.59735,961.0204L472.59735,961.01935L472.59735,961.0204L472.59735,961.0213Q472.59735,961.0204,472.59735,961.01935 Z"/>
</g>
<g style="fill:rgb(0,0,0); fill-opacity:1.0; stroke-linejoin: miter">
<path d="M518.09216,986.9032L518.09216,986.9045L518.0925,986.90405L518.09216,986.9032L518.09216,986.9045L518.09216,986.9032L518.0925,986.90405Q518.09216,986.9032,518.09216,986.9032 Z"/>
</g>
<g style="fill:rgb(255,0,0); fill-opacity:1.0; stroke-linejoin: miter">
<path d="M398.7948,812.71454L398.795,812.7169L398.795,812.71735L398.795,812.71454L398.7948,812.7169L398.795,812.71454L398.795,812.71735Q398.795,812.71454,398.7948,812.71454 Z"/>
</g>
<g>
<g style="fill:rgb(247,178,57); fill-opacity:1.0; stroke-linejoin: miter">
<path d="M333.8985,896.339L329.54208,975.96454L257.80542,943.37885C257.80542,914.33777,281.3475,890.7967,310.38712,890.7967C318.84457,890.7942,326.83737,892.79315,333.8985,896.339 Z"/>
</g>
<g style="fill:rgb(249,84,40); fill-opacity:1.0; stroke-linejoin: miter">
<path d="M362.9687,943.3776C362.9687,950.36346,361.61694,957.0186,359.13824,963.1034L359.12283,963.1046L308.50815,974.46094L310.38577,943.3776L333.89722,896.339C351.1453,904.9625,362.9687,922.7953,362.9687,943.3776 Z"/>
</g>
<g style="fill:rgb(43,165,247); fill-opacity:1.0; stroke-linejoin: miter">
<path d="M359.12283,963.1034L359.13824,963.1046C351.3406,982.3632,332.45615,995.9596,310.38712,995.9596C281.34625,995.9596,257.80545,972.41736,257.80545,943.3776L310.38712,943.37885L359.12283,963.1034 Z"/>
</g>
</g>
<g>
<g style="fill:rgb(247,178,57); fill-opacity:1.0; stroke-linejoin: miter">
<path d="M386.50583,1006.3366L422.7152,1006.3366L422.7152,1106.4108L386.50583,1106.4108L386.50583,1006.3366 Z M386.50583,1006.3366L422.7152,1006.3366L422.7152,1106.4108L386.50583,1106.4108L386.50583,1006.3366 Z M386.50583,1006.3366L422.7152,1006.3366L422.7152,1106.4108L386.50583,1106.4108L386.50583,1006.3366 Z M386.50583,1006.3366L422.7152,1006.3366L422.7152,1106.4108L386.50583,1106.4108L386.50583,1006.3366 Z"/>
</g>
<g style="fill:rgb(247,178,57); fill-opacity:1.0; stroke-linejoin: miter">
<path d="M320.06775,1037.813L356.27722,1037.813L356.27722,1106.4108L320.06775,1106.4108L320.06775,1037.813 Z M320.06775,1037.813L356.27722,1037.813L356.27722,1106.4108L320.06775,1106.4108L320.06775,1037.813 Z M320.06775,1037.813L356.27722,1037.813L356.27722,1106.4108L320.06775,1106.4108L320.06775,1037.813 Z M320.06775,1037.813L356.27722,1037.813L356.27722,1106.4108L320.06775,1106.4108L320.06775,1037.813 Z"/>
</g>
<g style="fill:rgb(43,165,247); fill-opacity:1.0; stroke-linejoin: miter">
<path d="M253.62976,1063.6962L289.83914,1063.6962L289.83914,1106.4108L253.62976,1106.4108L253.62976,1063.6962 Z M253.62976,1063.6962L289.83914,1063.6962L289.83914,1106.4108L253.62976,1106.4108L253.62976,1063.6962 Z M253.62976,1063.6962L289.83914,1063.6962L289.83914,1106.4108L253.62976,1106.4108L253.62976,1063.6962 Z M253.62976,1063.6962L289.83914,1063.6962L289.83914,1106.4108L253.62976,1106.4108L253.62976,1063.6962 Z"/>
</g>
</g>
<g style="fill:rgb(255,192,165); fill-opacity:1.0; stroke-linejoin: miter">
<path d="M682.6444,959.5718Q681.3772,959.9147,681.36597,961.9088Q681.35,963.00806,681.6084,964.66Q683.34265,973.3877,683.1449,973.49927Q683.3185,975.96783,682.3574,977.64087Q679.28784,979.0167,676.6323,978.1423Q674.93823,977.6701,672.067,976.07874L663.37976,970.7723Q661.802,970.0755,660.9188,971.5449Q660.40466,972.65485,661.64,974.1408Q662.2655,974.89844,663.26624,975.7736Q669.28467,980.6396,669.3545,980.9179Q670.7544,982.3094,671.3097,984.1404Q659.5825,977.17706,651.34875,970.9933Q648.6261,969.5882,647.199,971.4677Q646.25305,973.23926,649.0217,976.01263Q650.0801,977.12616,652.1345,978.86914L663.37415,988.17065Q666.0619,990.5246,665.7582,990.76587Q663.60913,990.2947,657.3296,985.8742Q654.67395,984.0969,650.4619,979.5142Q649.78125,978.9128,649.1305,978.5988Q647.25354,977.766,645.4523,978.32007Q643.9502,978.95953,644.3657,980.34717Q644.79675,983.06506,656.4398,991.2434Q651.827,988.3921,651.1603,988.8996Q650.55994,989.1753,651.37427,991.0108Q651.33984,991.6115,652.8685,992.9513Q659.9447,999.41113,668.16406,1003.7851Q673.3882,1006.5066,677.9181,1006.9177Q682.19543,1007.4452,689.8353,1005.99274L695.6072,1006.57166L697.3397,990.293Q696.91296,988.38983,696.056,985.205Q694.9364,981.0839,693.77246,978.54083Q693.2742,977.2356,689.8955,971.65344Q689.323,970.61084,688.8085,969.3252Q688.2438,967.8939,687.844,966.41144Q687.48157,965.1709,686.9717,962.3169Q686.87524,961.8767,686.657,961.4435Q685.20557,959.4398,682.7002,959.55774"/>
</g>
<g style="fill:rgb(255,255,255); fill-opacity:1.0; stroke-linejoin: miter">
<path d="M695.6941,987.28455L689.6642,1015.50757L696.016,1016.86633L696.11914,1016.85315L702.1477,988.665L695.7057,987.28705"/>
</g>
<g style="fill:rgb(14,4,0); fill-opacity:1.0; stroke-linejoin: miter">
<path d="M782.64026,766.5386Q774.73804,766.97284,769.9922,771.99335Q764.7943,777.1396,760.0033,789.1453Q755.6476,799.6698,755.81824,799.6218Q754.94055,802.2676,754.91235,804.46497Q754.5985,809.06287,758.96594,824.14166L824.3179,845.67267Q830.5654,823.797,830.30566,812.9917Q830.2621,800.9367,824.1741,789.23004Q817.9081,777.53973,809.7648,773.3424Q794.40076,766.1189,782.7634,766.5318"/>
</g>
<g style="fill:rgb(0,0,0); fill-opacity:1.0; stroke-linejoin: miter">
<path d="M831.21606,871.17065L764.59436,917.2983L738.94165,996.04987L696.5166,987.4784L689.59326,1023.2328L730.1139,1035.7297L711.90295,1186.3419L723.4518,1186.5271Q717.85205,1302.7925,719.4542,1322.3341Q719.86707,1329.6711,720.6492,1334.0323Q727.1052,1357.728,729.4463,1381.6885Q732.88306,1411.0055,739.44385,1497.0437Q719.87463,1521.2125,713.0315,1525.3132Q713.18225,1527.9878,677.27527,1536.7891Q671.3887,1539.6097,674.24414,1542.212Q678.33936,1546.8402,688.47253,1548.3003L727.4071,1549.1542Q735.1405,1550.397,750.0731,1539.8607Q754.3948,1545.823,788.5985,1538.9369Q787.1786,1497.3951,783.7915,1504.2771L769.21545,1329.2947Q779.00256,1273.0457,788.9121,1248.1464Q805.8522,1328.3073,803.141,1350.6973Q804.21045,1357.3855,810.0459,1364.7971L810.7937,1398.6595Q811.92786,1447.3436,808.3954,1514.115Q807.7031,1519.968,805.48865,1526.2192L794.30054,1552.3599Q792.4199,1559.4697,793.46704,1562.1346Q793.60754,1574.6053,832.7611,1564.6425Q840.2645,1561.886,842.1212,1559.1306L848.19727,1542.5602Q852.1732,1530.5066,842.96545,1514.9767L853.0249,1485.941Q855.63574,1423.498,855.8933,1393.5016Q856.8119,1346.7075,851.0399,1280.381L861.5127,1175.4757L905.24634,1162.3727L886.0657,1092.6937L917.9021,1051.3282Q906.78345,942.9728,892.9092,917.5886Q886.41907,904.3641,877.7002,898.0136Q867.8616,889.90826,844.879,887.33704L831.59827,871.6229"/>
</g>
<g style="fill:rgb(255,255,255); fill-opacity:1.0; stroke-linejoin: miter">
<path d="M827.71924,869.8361L791.97815,897.77L784.46155,896.2186L782.2894,908.4705Q762.8286,947.58057,757.8627,961.9346Q747.4238,989.12775,743.3887,1024.786Q740.42834,1048.1255,737.7058,1098.3768Q737.9866,1099.0265,740.8096,1102.2937Q747.05786,1109.6476,758.48035,1109.9111Q768.80725,1110.6047,800.412,1104.4314Q785.1659,1066.2026,781.0198,1043.6082Q775.86523,1017.91064,778.6356,993.68243Q781.3064,969.9066,792.73413,944.86334Q802.8507,921.57806,831.8834,874.752L831.9464,874.517L827.724,869.8415"/>
</g>
<g style="fill:rgb(255,0,0); fill-opacity:1.0; stroke-linejoin: miter">
<path d="M789.5885,901.7091L781.74805,909.2165L779.26086,918.10864Q773.52795,925.23425,769.1371,934.8695Q760.7649,953.3534,752.43713,981.8163Q745.25696,1006.7246,742.0919,1028.1165Q738.6312,1050.2583,736.49097,1085.5018L742.224,1097.8083L756.30164,1083.3468L785.4038,921.3594L794.3168,912.8389L789.6168,901.77545"/>
</g>
<g style="fill:rgb(255,192,165); fill-opacity:1.0; stroke-linejoin: miter">
<path d="M794.4153,793.2862Q791.9603,793.27515,788.58594,793.77496Q777.50793,796.0262,769.10034,797.07874Q765.36523,797.762,763.6173,798.9995Q758.1842,802.60693,757.7993,817.5192Q757.6085,824.6012,759.34937,832.87103Q759.58093,844.866,760.2096,850.07477Q760.90845,856.5467,762.6207,860.3613Q763.39636,862.13544,764.3644,863.70197L769.2599,870.8858Q775.6738,882.7448,776.09424,882.576Q778.4507,885.73083,783.42566,885.0146L785.0686,896.9851L792.49084,898.333L827.72864,873.3664L827.1521,845.26624Q832.48486,840.99896,833.48645,825.93604Q833.68384,814.5747,825.1345,818.3798Q822.651,819.8517,821.3938,822.64667Q819.7289,825.9959,819.2107,834.8878L817.33606,835.3332Q813.55835,809.53894,808.9524,801.77576Q804.75476,793.2122,794.42053,793.2862"/>
</g>
<g style="fill:rgb(255,192,165); fill-opacity:1.0; stroke-linejoin: miter">
<path d="M836.00757,1133.1039L818.4564,1115.5828L806.94824,1126.0338Q802.3165,1125.9915,799.1968,1128.031Q796.1195,1129.8254,788.96484,1137.1345Q796.2407,1149.4489,803.51294,1152.1221Q810.1477,1155.2122,829.0029,1153.409Q830.3966,1150.8567,830.3998,1149.3938Q830.5288,1147.8171,828.9203,1144.6755L829.4346,1142.9788Q830.2356,1139.6906,835.9662,1133.152"/>
</g>
<g style="fill:rgb(255,255,255); fill-opacity:1.0; stroke-linejoin: miter">
<path d="M847.1361,1130.45L823.81396,1110.9414L816.2178,1116.2788L838.16284,1138.1185L847.1201,1130.4635"/>
</g>
<g style="fill:rgb(255,77,0); fill-opacity:0.11372549; stroke-linejoin: miter">
<path d="M809.4131,868.2895Q801.47205,878.0834,796.98914,880.7611Q792.547,883.7995,783.33215,884.95374L784.87585,896.804L792.28674,898.4363L813.28186,883.03625L809.41406,868.29315"/>
</g>
<g style="fill:rgb(0,0,0); fill-opacity:0.5254902; stroke-linejoin: miter">
<path d="M998.99646,1554.7455L994.93945,1557.3397Q966.09534,1565.1797,826.1437,1569.8802Q685.22375,1574.5769,494.25793,1573.6891Q312.00592,1572.4485,202.73576,1566.428Q167.72443,1564.482,145.05847,1562.1871L126.00833,1559.8279Q110.30931,1557.3927,110.13281,1554.7455Q114.898575,1546.6215,240.3039,1541.2268Q365.70923,1535.8323,554.5647,1535.6272Q743.42004,1535.8323,868.82544,1541.2268Q994.2307,1546.6215,998.99646,1554.7455"/>
</g>
</g>
</svg>