<svg width="1178" height="842" viewBox="0 0 1178 842" fill="none" xmlns="http://www.w3.org/2000/svg">
<path d="M-1.00075 -0.734619C-1.1955 -0.734619 -1.38228 -0.657328 -1.51998 -0.519671C-1.65771 -0.382043 -1.73505 -0.195365 -1.73505 -0.000721455L-1.73432 842C-1.73432 842.405 -1.40557 842.734 -1.00002 842.734L1178 842.735C1178.2 842.735 1178.38 842.657 1178.52 842.52C1178.66 842.382 1178.73 842.195 1178.73 842.001L1178.73 7.03335e-06C1178.73 -0.405318 1178.41 -0.733891 1178 -0.733891L-1.00075 -0.734619Z" fill="#F26655"/>
<path d="M339.166 202.255L339.166 671.209H704.865L704.864 202.255L339.166 202.255Z" fill="white"/>
<path d="M345.305 218.744L342.671 630.248L701.535 630.247L704.156 221.037L345.305 218.744Z" fill="white"/>
<path d="M598.323 231.428L364.304 229.933C359.445 229.9 355.44 233.847 355.409 238.705C355.378 243.562 359.331 247.565 364.191 247.595L598.211 249.093C603.075 249.123 607.079 245.175 607.111 240.315C607.14 235.458 603.187 231.459 598.323 231.428Z" fill="white"/>
<path d="M628.576 232.906C632.743 232.933 636.103 236.333 636.076 240.503C636.049 244.667 632.647 248.025 628.479 247.999C624.305 247.973 620.948 244.572 620.975 240.405C621.001 236.24 624.403 232.879 628.576 232.906Z" fill="white"/>
<path d="M656.826 233.087C660.995 233.114 664.352 236.513 664.325 240.683C664.299 244.848 660.897 248.206 656.729 248.179C652.559 248.153 649.203 244.752 649.229 240.587C649.256 236.421 652.656 233.06 656.826 233.087Z" fill="white"/>
<path d="M685.077 233.267C689.246 233.293 692.603 236.694 692.577 240.864C692.55 245.028 689.148 248.387 684.98 248.36C680.811 248.333 677.453 244.933 677.48 240.767C677.507 236.602 680.909 233.24 685.077 233.267Z" fill="white"/>
<path d="M367.398 282.397L521.489 283.384L520.325 465.112L366.235 464.128L367.398 282.397Z" fill="#ECF0F1"/>
<path d="M540.496 283.519L540.45 290.648L672.968 291.494L673.013 284.366L540.496 283.519Z" fill="#ECF0F1"/>
<path d="M540.307 313.035L540.261 320.164L672.779 321.009L672.824 313.881L540.307 313.035Z" fill="#ECF0F1"/>
<path d="M540.118 342.548L540.072 349.678L646.376 350.357L646.422 343.228L540.118 342.548Z" fill="#ECF0F1"/>
<path d="M539.929 372.063L539.883 379.193L672.401 380.039L672.446 372.91L539.929 372.063Z" fill="#ECF0F1"/>
<path d="M539.74 401.576L539.695 408.706L672.212 409.552L672.258 402.423L539.74 401.576Z" fill="#ECF0F1"/>
<path d="M539.552 431.094L539.529 434.658L539.506 438.221C564.326 438.38 589.146 438.538 613.966 438.696L614.012 431.572C589.191 431.412 564.371 431.253 539.552 431.094Z" fill="#ECF0F1"/>
<path d="M366.112 483.387L366.066 490.517L636.222 492.242L636.268 485.114L366.112 483.387Z" fill="#ECF0F1"/>
<path d="M365.923 512.901L365.877 520.032L636.033 521.757L636.079 514.629L365.923 512.901Z" fill="#ECF0F1"/>
<path d="M365.734 542.417L365.688 549.547L582.404 550.931L582.45 543.802L365.734 542.417Z" fill="#ECF0F1"/>
<path d="M365.545 571.932L365.499 579.062L635.655 580.787L635.701 573.659L365.545 571.932Z" fill="#ECF0F1"/>
<path d="M365.356 601.447L365.31 608.577L635.466 610.302L635.512 603.174L365.356 601.447Z" fill="#ECF0F1"/>
<path d="M350.632 218.547L498.996 218.548L647.36 218.547C647.359 225.875 647.359 233.203 647.359 240.531C548.45 240.532 449.541 240.532 350.632 240.532C350.632 233.204 350.632 225.875 350.632 218.547Z" fill="white"/>
<path d="M653.274 220.814H667.655L682.036 220.815C682.036 226.631 682.036 232.448 682.036 238.265C672.449 238.265 662.861 238.265 653.274 238.265C653.274 232.448 653.274 226.631 653.274 220.814Z" fill="white"/>
<path d="M573.006 365.231V365.232L573.006 365.232L573.006 365.231V365.232V365.231L573.006 365.232C573.006 365.231 573.006 365.231 573.006 365.231Z" fill="black"/>
<path d="M486.664 239.228L486.664 239.23V239.23V239.228L486.664 239.23L486.664 239.228V239.23C486.664 239.229 486.664 239.228 486.664 239.228Z" fill="#FF0000"/>
<path d="M439.694 299.72L436.542 357.318L384.622 333.747C384.622 312.739 401.66 295.71 422.678 295.71C428.799 295.709 434.584 297.155 439.694 299.72Z" fill="#F7B239"/>
<path d="M460.734 333.746C460.734 338.799 459.756 343.613 457.962 348.015L457.951 348.016L421.318 356.23L422.677 333.746L439.694 299.719C452.177 305.957 460.734 318.857 460.734 333.746Z" fill="#F95428"/>
<path d="M457.951 348.015L457.962 348.016C452.318 361.947 438.651 371.782 422.678 371.782C401.659 371.782 384.622 354.752 384.622 333.746L422.678 333.747L457.951 348.015Z" fill="#2BA5F7"/>
<path d="M477.769 379.288H503.976V451.678H477.769V379.288ZM477.769 379.288H503.976V451.678H477.769V379.288ZM477.769 379.288H503.976V451.678H477.769V379.288ZM477.769 379.288H503.976V451.678H477.769V379.288Z" fill="#F7B239"/>
<path d="M429.684 402.057H455.891V451.678H429.684V402.057ZM429.684 402.057H455.891V451.678H429.684V402.057ZM429.684 402.057H455.891V451.678H429.684V402.057ZM429.684 402.057H455.891V451.678H429.684V402.057Z" fill="#F7B239"/>
<path d="M381.599 420.78H407.806V451.678H381.599V420.78ZM381.599 420.78H407.806V451.678H381.599V420.78ZM381.599 420.78H407.806V451.678H381.599V420.78ZM381.599 420.78H407.806V451.678H381.599V420.78Z" fill="#2BA5F7"/>
<path d="M692.102 345.46C691.49 345.625 691.182 346.189 691.176 347.151C691.169 347.681 691.227 348.344 691.352 349.141C692.189 353.349 692.559 355.481 692.464 355.535C692.548 356.725 692.358 357.724 691.894 358.531C690.413 359.194 689.032 359.315 687.75 358.893C686.933 358.666 685.832 358.168 684.446 357.401L678.159 353.562C677.398 353.226 676.804 353.412 676.378 354.121C676.13 354.656 676.304 355.282 676.9 355.999C677.201 356.364 677.594 356.758 678.077 357.18C680.981 359.526 682.449 360.767 682.483 360.901C683.159 361.572 683.63 362.349 683.898 363.232C678.24 359.874 673.424 356.704 669.451 353.722C668.138 353.044 667.136 353.159 666.448 354.065C665.991 354.919 666.431 356.015 667.767 357.353C668.278 357.89 669.029 358.578 670.02 359.419L678.155 366.147C679.452 367.283 680.027 367.908 679.88 368.025C678.843 367.798 676.81 366.618 673.78 364.486C672.499 363.629 670.842 362.096 668.809 359.886C668.481 359.596 668.16 359.375 667.846 359.223C666.94 358.822 666.053 358.755 665.184 359.022C664.459 359.33 664.197 359.819 664.397 360.488C664.605 361.799 667.518 364.426 673.136 368.37C670.91 366.995 669.637 366.43 669.315 366.675C669.025 366.808 669.077 367.317 669.47 368.202C669.453 368.492 669.814 368.959 670.551 369.606C673.966 372.721 677.656 375.333 681.621 377.442C684.142 378.755 686.495 379.51 688.681 379.708C690.745 379.963 693.62 379.74 697.306 379.039L701.484 379.458L702.738 367.683C702.532 366.765 702.222 365.538 701.809 364.002C701.268 362.015 700.717 360.408 700.156 359.182C699.915 358.552 698.98 356.891 697.35 354.199C697.074 353.697 696.811 353.135 696.563 352.515C696.291 351.825 696.058 351.122 695.865 350.408C695.69 349.809 695.48 348.822 695.234 347.446C695.187 347.233 695.111 347.023 695.006 346.814C694.306 345.848 693.351 345.393 692.142 345.45" fill="#FFC0A5"/>
<path d="M701.547 365.506L697.182 385.922L701.78 386.905L701.854 386.895L706.217 366.505L701.555 365.508" fill="white"/>
<path d="M764.474 205.826C760.662 206.035 757.61 207.351 755.32 209.772C752.812 212.254 750.402 216.389 748.091 222.179C745.989 227.254 744.98 229.78 745.062 229.757C744.638 231.033 744.42 232.201 744.406 233.261C744.255 235.478 745.233 240.223 747.34 247.494L794.639 263.069C797.653 252.52 799.098 244.639 798.973 239.429C798.952 233.615 797.472 227.886 794.535 222.24C791.511 216.603 788.035 212.772 784.106 210.748C776.693 207.264 770.179 205.622 764.564 205.821" fill="#0E0400"/>
<path d="M799.632 281.513L751.414 314.881L732.847 371.847L702.142 365.647L697.131 391.51L726.458 400.55L713.278 509.498L721.636 509.632C718.934 565.701 717.97 598.447 718.743 607.871C718.942 611.409 719.231 614.229 719.608 616.333C722.723 627.76 724.845 639.251 725.975 650.806C727.633 664.944 730.045 692.758 733.211 734.25C723.769 745.905 717.396 752.722 714.095 754.699C714.167 755.989 705.541 758.756 688.216 763C685.376 764.361 684.644 765.668 686.022 766.923C687.998 769.155 691.431 770.623 696.32 771.327L724.499 771.945C728.23 772.544 733.699 770.303 740.904 765.222C742.989 768.098 752.283 767.875 768.787 764.554C768.102 744.521 766.942 736.163 765.308 739.482L754.758 612.906C759.48 585.78 764.232 566.213 769.014 554.206C777.187 592.863 780.62 617.59 779.312 628.388C779.828 631.613 781.494 635.013 784.309 638.587L784.851 663.082C785.398 686.56 784.819 714.398 783.115 746.599C782.781 749.421 782.08 752.34 781.011 755.354L772.914 774.264C772.006 777.692 771.805 780.049 772.31 781.335C772.378 787.348 781.858 787.953 800.75 783.149C804.37 781.819 806.628 780.49 807.524 779.161L811.922 767.175C813.84 761.362 812.578 754.711 808.135 747.222L815.416 726.219C816.676 696.106 817.368 673.816 817.492 659.351C817.935 636.785 816.764 609.509 813.979 577.523L821.559 501.638L853.211 492.16L839.329 441.756L862.371 411.834C857.006 359.58 850.977 327.332 844.282 315.091C841.151 308.713 837.482 303.993 833.275 300.931C828.528 297.022 820.609 294.448 809.52 293.208L799.908 281.841" fill="black"/>
<path d="M797.101 280.548L771.233 300.755L765.793 299.632L764.221 308.495C754.831 327.356 748.938 340.247 746.541 347.169C741.505 360.283 738.013 375.438 736.066 392.634C734.637 403.889 733.266 421.634 731.953 445.867C732.088 446.18 732.837 447.125 734.199 448.7C737.214 452.247 741.477 454.084 746.989 454.211C751.971 454.545 762.087 453.224 777.337 450.247C769.981 431.811 765.302 417.145 763.302 406.249C760.815 393.857 760.239 381.818 761.576 370.135C762.865 358.669 766.266 346.897 771.78 334.82C776.661 323.591 786.106 306.686 800.115 284.104L800.16 283.934L797.104 280.552" fill="white"/>
<path d="M769.503 303.604L763.829 309.035L762.029 315.467C759.262 318.903 756.82 322.945 754.701 327.591C750.662 336.505 746.633 347.825 742.615 361.551C739.15 373.563 736.654 384.727 735.127 395.043C733.457 405.721 732.106 419.558 731.073 436.554L735.223 445.456L745.412 434.995L766.475 317.818L772.925 311.655L769.524 303.652" fill="#FF0000"/>
<path d="M772.997 225.174C771.812 225.169 770.406 225.287 768.778 225.528C763.432 226.613 758.731 227.41 754.675 227.918C752.873 228.247 751.55 228.71 750.706 229.307C748.085 231.047 746.681 235.512 746.496 242.704C746.404 246.119 746.777 249.821 747.617 253.809C747.729 259.593 747.937 263.741 748.24 266.253C748.577 269.374 749.159 271.855 749.985 273.694C750.359 274.55 750.78 275.355 751.247 276.111L754.79 281.307C757.885 287.026 759.534 289.845 759.737 289.764C760.874 291.285 762.642 291.873 765.043 291.528L766.232 300.187L771.604 301.162L797.107 283.102L796.69 262.775C799.263 260.717 800.791 256.056 801.275 248.792C801.37 243.313 799.355 241.491 795.23 243.326C794.032 244.036 793.129 245.065 792.523 246.413C791.719 248.028 791.193 250.979 790.943 255.268L789.586 255.59C787.763 243.151 785.74 235.059 783.518 231.315C781.493 227.186 777.987 225.139 773 225.174" fill="#FFC0A5"/>
<path d="M803.099 470.987L790.397 458.313L782.068 465.873C779.833 465.853 777.963 466.334 776.457 467.318C774.973 468.183 772.504 470.378 769.052 473.903C772.563 479.842 776.072 483.455 779.581 484.745C782.783 486.235 788.932 486.545 798.03 485.676C798.702 484.445 799.039 483.477 799.041 482.771C799.103 482.011 798.746 480.873 797.97 479.358L798.342 478.131C798.729 476.545 800.304 474.175 803.07 471.022" fill="#FFC0A5"/>
<path d="M811.154 469.068L794.274 454.956L788.776 458.817L804.659 474.615L811.142 469.077" fill="white"/>
<path d="M783.851 279.429C780.02 284.152 777.023 287.159 774.86 288.451C772.716 289.916 769.421 290.927 764.975 291.484L766.092 300.056L771.456 301.236L786.652 290.097L783.852 279.432" fill="#FF4D00" fill-opacity="0.113725"/>
<path d="M921.064 775.989L918.128 777.866C904.21 781.647 863.488 784.671 795.96 786.938C727.966 789.202 647.898 790.121 555.756 789.693C467.818 789.094 397.488 787.344 344.765 784.44C327.871 783.502 313.957 782.479 303.02 781.373L289.233 779.666C281.658 778.492 277.828 777.266 277.743 775.989C280.042 772.072 311.446 768.812 371.955 766.21C432.463 763.609 508.28 762.259 599.403 762.16C690.527 762.259 766.343 763.609 826.852 766.21C887.36 768.812 918.764 772.072 921.064 775.989Z" fill="black" fill-opacity="0.52549"/>
</svg>
