<?xml version="1.0" standalone="no"?><!DOCTYPE svg PUBLIC "-//W3C//DTD SVG 1.1//EN" "http://www.w3.org/Graphics/SVG/1.1/DTD/svg11.dtd"><svg xmlns="http://www.w3.org/2000/svg" version="1.1" width="2892.724" height="2003.347" xmlns:xlink="http://www.w3.org/1999/xlink" xlink="http://www.w3.org/1999/xlink" style="position:relative;overflow:hidden;" viewBox="-1012.5 -1012.5 2892.724 2003.347"><defs/><g><g width="145.08" height="121.675" transform="scale(1,1) translate(1472.193,148.645)"><g transform="scale(1,1) translate(0,0)" fill="#000000" stroke="#000000" stroke-opacity="1"><path d="M 0 0 L 137.418 115.249" fill="none" stroke-width="1" stroke-dasharray="3,1"/><g><g stroke-dasharray="none"><path d="M140.631,111.418L145.08,121.675L134.205,119.08z" stroke="none" fill-opacity="1"/></g></g></g><g stroke-width="0" stroke-dasharray="none" fill="#FFFFFF" opacity="1" width="73.05" height="17.833" transform="scale(1,1) translate(36.015,51.921)"><rect width="73.05" height="17.833"/></g><g width="71.05034637451172" height="121.67524335048668" transform="scale(1,1) translate(37.015,52.921)"><text width="71.05034637451172" height="15.833333015441895" transform="scale(1,1) translate(0,0)" xml:space="preserve"><tspan xml:space="preserve" text-rendering="optimizeSpeed" font-size="13.88888888888889" font-weight="normal" font-style="normal" text-decoration="none" fill="#000000" opacity="1" x="0" text-anchor="start" y="12.5" textLength="71.05034637451172" style="font-family: Arial, Helvetica Neue, Helvetica, sans-serif;">sends input</tspan></text></g></g><g width="19.336" height="15.833" transform="rotate(29.23,1490.727,149.039) scale(1,1) translate(1481.059,141.122)"><g stroke="#545454" stroke-opacity="1" stroke-width="0" stroke-dasharray="none" width="19.336" height="15.833" transform="scale(1,1) translate(0,0)" fill="none"><rect width="19.336" height="15.833"/></g><g width="19.3359375" height="15.833333015441895" transform="scale(1,1) translate(0,0)"><text width="19.3359375" height="15.833333015441895" transform="scale(1,1) translate(0,0)" xml:space="preserve"><tspan xml:space="preserve" text-rendering="optimizeSpeed" font-size="13.88888888888889" font-weight="normal" font-style="normal" text-decoration="none" fill="#ffffff" opacity="1" x="0.018" text-anchor="start" y="12.5" textLength="15.422453880310059" style="font-family: Arial, Helvetica Neue, Helvetica, sans-serif;"> M</tspan></text></g></g><g width="19.336" height="15.833" transform="rotate(29.23,1606.471,246.111) scale(1,1) translate(1596.803,238.194)"><g stroke="#545454" stroke-opacity="1" stroke-width="0" stroke-dasharray="none" width="19.336" height="15.833" transform="scale(1,1) translate(0,0)" fill="none"><rect width="19.336" height="15.833"/></g><g width="19.3359375" height="15.833333015441895" transform="scale(1,1) translate(0,0)"><text width="19.3359375" height="15.833333015441895" transform="scale(1,1) translate(0,0)" xml:space="preserve"><tspan xml:space="preserve" text-rendering="optimizeSpeed" font-size="13.88888888888889" font-weight="normal" font-style="normal" text-decoration="none" fill="#ffffff" opacity="1" x="0.018" text-anchor="start" y="12.5" textLength="15.422453880310059" style="font-family: Arial, Helvetica Neue, Helvetica, sans-serif;"> M</tspan></text></g></g><g width="106.64" height="107.26" transform="scale(1,1) translate(1151.032,168.33)"><g transform="scale(1,1) translate(0,0)" fill="#000000" stroke="#000000" stroke-opacity="1"><path d="M 99.589 7.092 L 0 107.26" fill="none" stroke-width="1" stroke-dasharray="3,1"/><g><g stroke-dasharray="none"><path d="M96.044,3.566L106.64,0L103.135,10.617z" stroke="none" fill-opacity="1"/></g></g></g><g stroke-width="0" stroke-dasharray="none" fill="#FFFFFF" opacity="1" width="100.061" height="17.833" transform="scale(1,1) translate(3.289,44.713)"><rect width="100.061" height="17.833"/></g><g width="98.06134033203125" height="138.11041061717376" transform="scale(1,1) translate(4.289,45.713)"><text width="98.06134033203125" height="15.833333015441895" transform="scale(1,1) translate(0,0)" xml:space="preserve"><tspan xml:space="preserve" text-rendering="optimizeSpeed" font-size="13.88888888888889" font-weight="normal" font-style="normal" text-decoration="none" fill="#000000" opacity="1" x="0" text-anchor="start" y="12.5" textLength="98.06134033203125" style="font-family: Arial, Helvetica Neue, Helvetica, sans-serif;">sends response</tspan></text></g></g><g width="0" height="147.19" transform="scale(1,1) translate(1672.143,372.697)"><g transform="scale(1,1) translate(0,0)" fill="#000000" stroke="#000000" stroke-opacity="1"><path d="M 0 0 L 0 137.19" fill="none" stroke-width="1" stroke-dasharray="3,1"/><g><g stroke-dasharray="none"><path d="M5,137.19L0,147.19L-5,137.19z" stroke="none" fill-opacity="1"/></g></g></g><g stroke-width="0" stroke-dasharray="none" fill="#FFFFFF" opacity="1" width="116.251" height="17.833" transform="scale(1,1) translate(-58.125,64.679)"><rect width="116.251" height="17.833"/></g><g width="114.25057983398438" height="215.64053878107757" transform="scale(1,1) translate(-57.125,65.679)"><text width="114.25057983398438" height="15.833333015441895" transform="scale(1,1) translate(0,0)" xml:space="preserve"><tspan xml:space="preserve" text-rendering="optimizeSpeed" font-size="13.88888888888889" font-weight="normal" font-style="normal" text-decoration="none" fill="#000000" opacity="1" x="0" text-anchor="start" y="12.5" textLength="114.25057983398438" style="font-family: Arial, Helvetica Neue, Helvetica, sans-serif;">receives data from</tspan></text></g></g><g width="0" height="198.337" transform="scale(1,1) translate(1690.743,637.393)"><g transform="scale(1,1) translate(0,0)" fill="#000000" stroke="#000000" stroke-opacity="1"><path d="M 0 0 L 0 188.337" fill="none" stroke-width="1" stroke-dasharray="3,1"/><g><g stroke-dasharray="none"><path d="M5,188.337L0,198.337L-5,188.337z" stroke="none" fill-opacity="1"/></g></g></g><g stroke-width="0" stroke-dasharray="none" fill="#FFFFFF" opacity="1" width="85.406" height="17.833" transform="scale(1,1) translate(-42.703,90.252)"><rect width="85.406" height="17.833"/></g><g width="83.40567016601562" height="163.42620992029083" transform="scale(1,1) translate(-41.703,91.252)"><text width="83.40567016601562" height="15.833333015441895" transform="scale(1,1) translate(0,0)" xml:space="preserve"><tspan xml:space="preserve" text-rendering="optimizeSpeed" font-size="13.88888888888889" font-weight="normal" font-style="normal" text-decoration="none" fill="#000000" opacity="1" x="0" text-anchor="start" y="12.5" textLength="83.40567016601562" style="font-family: Arial, Helvetica Neue, Helvetica, sans-serif;">sends data to</tspan></text></g></g><g width="308.966" height="0" transform="scale(1,1) translate(1233.937,897.142)"><g transform="scale(1,1) translate(0,0)" fill="#000000" stroke="#000000" stroke-opacity="1"><path d="M 308.966 0 L 10 0" fill="none" stroke-width="1" stroke-dasharray="3,1"/><g><g stroke-dasharray="none"><path d="M10,5L0,0L10,-5z" stroke="none" fill-opacity="1"/></g></g></g><g stroke-width="0" stroke-dasharray="none" fill="#FFFFFF" opacity="1" width="31.34" height="17.833" transform="scale(1,1) translate(138.813,-8.917)"><rect width="31.34" height="17.833"/></g><g width="29.34027671813965" height="15.833333015441895" transform="scale(1,1) translate(139.813,-7.917)"><text width="29.34027671813965" height="15.833333015441895" transform="scale(1,1) translate(0,0)" xml:space="preserve"><tspan xml:space="preserve" text-rendering="optimizeSpeed" font-size="13.88888888888889" font-weight="normal" font-style="normal" text-decoration="none" fill="#000000" opacity="1" x="0" text-anchor="start" y="12.5" textLength="29.34027671813965" style="font-family: Arial, Helvetica Neue, Helvetica, sans-serif;">uses</tspan></text></g></g><g width="303.026" height="201.5" transform="scale(1,1) translate(1293.478,643.871)"><g transform="scale(1,1) translate(0,0)" fill="#000000" stroke="#000000" stroke-opacity="1"><path d="M 303.026 201.5 L 8.327 5.537" fill="none" stroke-width="1" stroke-dasharray="3,1"/><g><g stroke-dasharray="none"><path d="M5.558,9.701L0,0L11.096,1.374z" stroke="none" fill-opacity="1"/></g></g></g><g stroke-width="0" stroke-dasharray="none" fill="#FFFFFF" opacity="1" width="53.722" height="17.833" transform="scale(1,1) translate(124.652,91.834)"><rect width="53.722" height="17.833"/></g><g width="51.721641540527344" height="393.4574784867085" transform="scale(1,1) translate(125.652,92.834)"><text width="51.721641540527344" height="15.833333015441895" transform="scale(1,1) translate(0,0)" xml:space="preserve"><tspan xml:space="preserve" text-rendering="optimizeSpeed" font-size="13.88888888888889" font-weight="normal" font-style="normal" text-decoration="none" fill="#000000" opacity="1" x="0" text-anchor="start" y="12.5" textLength="51.721641540527344" style="font-family: Arial, Helvetica Neue, Helvetica, sans-serif;">writes to</tspan></text></g></g><g width="0" height="186" transform="scale(1,1) translate(1151.032,379.441)"><g transform="scale(1,1) translate(0,0)" fill="#000000" stroke="#000000" stroke-opacity="1"><path d="M 0 0 L 0 176" fill="none" stroke-width="1" stroke-dasharray="3,1"/><g><g stroke-dasharray="none"><path d="M5,176L0,186L-5,176z" stroke="none" fill-opacity="1"/></g></g></g><g stroke-width="0" stroke-dasharray="none" fill="#FFFFFF" opacity="1" width="68.392" height="17.833" transform="scale(1,1) translate(-34.196,84.084)"><rect width="68.392" height="17.833"/></g><g width="66.39178466796875" height="164.86038342806177" transform="scale(1,1) translate(-33.196,85.084)"><text width="66.39178466796875" height="15.833333015441895" transform="scale(1,1) translate(0,0)" xml:space="preserve"><tspan xml:space="preserve" text-rendering="optimizeSpeed" font-size="13.88888888888889" font-weight="normal" font-style="normal" text-decoration="none" fill="#000000" opacity="1" x="0" text-anchor="start" y="12.5" textLength="66.39178466796875" style="font-family: Arial, Helvetica Neue, Helvetica, sans-serif;">reads from</tspan></text></g></g><g width="150" height="75" transform="scale(1,1) translate(-1000,-1000)"><g width="150" height="75" transform="scale(1,1) translate(0,0)" stroke="#7F7F7F" stroke-width="1" stroke-dasharray="none" fill="#A5A5A5" fill-opacity="1" stroke-opacity="1"><ellipse rx="75" ry="37.5" cx="75" cy="37.5"/></g></g><g width="217.648" height="108.824" transform="scale(1,1) translate(1248.359,61.528)"><g transform="scale(1,1) translate(0,0)" stroke="#7F7F7F" fill="#A5A5A5" fill-opacity="1" stroke-opacity="1"><path d="M0,21.765 a21.765,21.765 0 0,1 21.765,-21.765 l174.118,0 a21.765,21.765 0 0,1 21.765,21.765 l0,65.294 a21.765,21.765 0 0,1 -21.765,21.765 l-174.118,0 a21.765,21.765 0 0,1 -21.765,-21.765 z" stroke-width="1" stroke-dasharray="none"/></g><g width="204.01574437940292" height="95.19168504653621" transform="scale(1,1) translate(6.816,6.816)"><text width="204.01574437940292" height="94.99999809265137" transform="scale(1,1) translate(0,0.09584347694242012)" xml:space="preserve"><tspan xml:space="preserve" text-rendering="optimizeSpeed" font-size="13.88888888888889" font-weight="normal" font-style="normal" text-decoration="none" fill="#FFFFFF" opacity="1" x="58.902" text-anchor="start" y="12.5" textLength="86.2123794555664" style="font-family: Arial, Helvetica Neue, Helvetica, sans-serif;">Web Interface</tspan><tspan xml:space="preserve" text-rendering="optimizeSpeed" font-size="13.88888888888889" font-weight="normal" font-style="normal" text-decoration="none" fill="#FFFFFF" opacity="1" x="42.184" text-anchor="start" y="28.333" textLength="119.64698791503906" style="font-family: Arial, Helvetica Neue, Helvetica, sans-serif;">[Software Systems]</tspan><tspan xml:space="preserve" text-rendering="optimizeSpeed" font-size="13.88888888888889" font-weight="normal" font-style="normal" text-decoration="none" fill="#FFFFFF" opacity="1" x="22.885" text-anchor="start" y="60" textLength="154.38368225097656" style="font-family: Arial, Helvetica Neue, Helvetica, sans-serif;">Allows users to introduce</tspan><tspan xml:space="preserve" text-rendering="optimizeSpeed" font-size="13.88888888888889" font-weight="normal" font-style="normal" text-decoration="none" fill="#FFFFFF" opacity="1" x="2.044" text-anchor="start" y="75.833" textLength="196.0648193359375" style="font-family: Arial, Helvetica Neue, Helvetica, sans-serif;">concepts and view statistic from</tspan><tspan xml:space="preserve" text-rendering="optimizeSpeed" font-size="13.88888888888889" font-weight="normal" font-style="normal" text-decoration="none" fill="#FFFFFF" opacity="1" x="86.564" text-anchor="start" y="91.667" textLength="30.8883056640625" style="font-family: Arial, Helvetica Neue, Helvetica, sans-serif;">them</tspan></text></g></g><g width="181.345" height="90.672" transform="scale(1,1) translate(1581.471,282.024)"><g transform="scale(1,1) translate(0,0)" stroke="#7F7F7F" fill="#A5A5A5" fill-opacity="1" stroke-opacity="1"><path d="M0,18.134 a18.134,18.134 0 0,1 18.134,-18.134 l145.076,0 a18.134,18.134 0 0,1 18.134,18.134 l0,54.403 a18.134,18.134 0 0,1 -18.134,18.134 l-145.076,0 a18.134,18.134 0 0,1 -18.134,-18.134 z" stroke-width="1" stroke-dasharray="none"/></g><g width="169.83911060958138" height="79.16666507720947" transform="scale(1,1) translate(5.753,5.753)"><text width="169.83911060958138" height="79.16666507720947" transform="scale(1,1) translate(0,0)" xml:space="preserve"><tspan xml:space="preserve" text-rendering="optimizeSpeed" font-size="13.88888888888889" font-weight="normal" font-style="normal" text-decoration="none" fill="#FFFFFF" opacity="1" x="61.374" text-anchor="start" y="12.5" textLength="47.09201431274414" style="font-family: Arial, Helvetica Neue, Helvetica, sans-serif;">Crawler</tspan><tspan xml:space="preserve" text-rendering="optimizeSpeed" font-size="13.88888888888889" font-weight="normal" font-style="normal" text-decoration="none" fill="#FFFFFF" opacity="1" x="25.096" text-anchor="start" y="28.333" textLength="119.64698791503906" style="font-family: Arial, Helvetica Neue, Helvetica, sans-serif;">[Software Systems]</tspan><tspan xml:space="preserve" text-rendering="optimizeSpeed" font-size="13.88888888888889" font-weight="normal" font-style="normal" text-decoration="none" fill="#FFFFFF" opacity="1" x="18.535" text-anchor="start" y="60" textLength="128.90625" style="font-family: Arial, Helvetica Neue, Helvetica, sans-serif;">Extract data from the</tspan><tspan xml:space="preserve" text-rendering="optimizeSpeed" font-size="13.88888888888889" font-weight="normal" font-style="normal" text-decoration="none" fill="#FFFFFF" opacity="1" x="59.435" text-anchor="start" y="75.833" textLength="47.09202575683594" style="font-family: Arial, Helvetica Neue, Helvetica, sans-serif;">Internet</tspan></text></g><g fill="#9999FF" stroke="#9999FF" stroke-opacity="1" opacity="0" transform="scale(1,1) translate(0,0)"><path fill="none" stroke-width="1" stroke-dasharray="none" d="M0,0"/></g></g><g width="181.507" height="90.753" transform="scale(1,1) translate(1048.809,288.184)"><g transform="scale(1,1) translate(0,0)" stroke="#7F7F7F" fill="#A5A5A5" fill-opacity="1" stroke-opacity="1"><path d="M0,18.151 a18.151,18.151 0 0,1 18.151,-18.151 l145.205,0 a18.151,18.151 0 0,1 18.151,18.151 l0,54.452 a18.151,18.151 0 0,1 -18.151,18.151 l-145.205,0 a18.151,18.151 0 0,1 -18.151,-18.151 z" stroke-width="1" stroke-dasharray="none"/></g><g width="169.99125386483956" height="79.23800325288033" transform="scale(1,1) translate(5.758,5.758)"><text width="169.99125386483956" height="79.16666507720947" transform="scale(1,1) translate(0,0.03566908783542999)" xml:space="preserve"><tspan xml:space="preserve" text-rendering="optimizeSpeed" font-size="13.88888888888889" font-weight="normal" font-style="normal" text-decoration="none" fill="#FFFFFF" opacity="1" x="55.279" text-anchor="start" y="12.5" textLength="55.5555534362793" style="font-family: Arial, Helvetica Neue, Helvetica, sans-serif;">Statistics</tspan><tspan xml:space="preserve" text-rendering="optimizeSpeed" font-size="13.88888888888889" font-weight="normal" font-style="normal" text-decoration="none" fill="#FFFFFF" opacity="1" x="21.7" text-anchor="start" y="28.333" textLength="126.5914306640625" style="font-family: Arial, Helvetica Neue, Helvetica, sans-serif;">[Software Sysstems]</tspan><tspan xml:space="preserve" text-rendering="optimizeSpeed" font-size="13.88888888888889" font-weight="normal" font-style="normal" text-decoration="none" fill="#FFFFFF" opacity="1" x="1.236" text-anchor="start" y="60" textLength="163.65740966796875" style="font-family: Arial, Helvetica Neue, Helvetica, sans-serif;">Generates statistics based</tspan><tspan xml:space="preserve" text-rendering="optimizeSpeed" font-size="13.88888888888889" font-weight="normal" font-style="normal" text-decoration="none" fill="#FFFFFF" opacity="1" x="16.267" text-anchor="start" y="75.833" textLength="137.4565887451172" style="font-family: Arial, Helvetica Neue, Helvetica, sans-serif;">on the processed data</tspan></text></g><g fill="#9999FF" stroke="#9999FF" stroke-opacity="1" opacity="0" transform="scale(1,1) translate(0,0)"><path fill="none" stroke-width="1" stroke-dasharray="none" d="M0,0"/></g></g><g width="217.214" height="108.607" transform="scale(1,1) translate(1579.036,524.778)"><g transform="scale(1,1) translate(0,0)" stroke="#7F7F7F" fill="#4bacc6" fill-opacity="1" stroke-opacity="1"><path d="M0,21.721 a21.721,21.721 0 0,1 21.721,-21.721 l173.771,0 a21.721,21.721 0 0,1 21.721,21.721 l0,65.164 a21.721,21.721 0 0,1 -21.721,21.721 l-173.771,0 a21.721,21.721 0 0,1 -21.721,-21.721 z" stroke-width="1" stroke-dasharray="none"/></g><g width="203.60693273149766" height="94.99999809265137" transform="scale(1,1) translate(6.803,6.803)"><text width="203.60693273149766" height="94.99999809265137" transform="scale(1,1) translate(0,0)" xml:space="preserve"><tspan xml:space="preserve" text-rendering="optimizeSpeed" font-size="13.88888888888889" font-weight="normal" font-style="normal" text-decoration="none" fill="#ffffff" opacity="1" x="39.282" text-anchor="start" y="12.5" textLength="125.04340362548828" style="font-family: Arial, Helvetica Neue, Helvetica, sans-serif;">GetInfoFromCrawler</tspan><tspan xml:space="preserve" text-rendering="optimizeSpeed" font-size="13.88888888888889" font-weight="normal" font-style="normal" text-decoration="none" fill="#ffffff" opacity="1" x="51.232" text-anchor="start" y="28.333" textLength="101.14293670654297" style="font-family: Arial, Helvetica Neue, Helvetica, sans-serif;">[Container:Java]</tspan><tspan xml:space="preserve" text-rendering="optimizeSpeed" font-size="13.88888888888889" font-weight="normal" font-style="normal" text-decoration="none" fill="#ffffff" opacity="1" x="23.454" text-anchor="start" y="60" textLength="152.8356475830078" style="font-family: Arial, Helvetica Neue, Helvetica, sans-serif;">Gets extracted data from</tspan><tspan xml:space="preserve" text-rendering="optimizeSpeed" font-size="13.88888888888889" font-weight="normal" font-style="normal" text-decoration="none" fill="#ffffff" opacity="1" x="26.919" text-anchor="start" y="75.833" textLength="145.90567016601562" style="font-family: Arial, Helvetica Neue, Helvetica, sans-serif;">Crawler and sends in to</tspan><tspan xml:space="preserve" text-rendering="optimizeSpeed" font-size="13.88888888888889" font-weight="normal" font-style="normal" text-decoration="none" fill="#ffffff" opacity="1" x="70.922" text-anchor="start" y="91.667" textLength="61.76214599609375" style="font-family: Arial, Helvetica Neue, Helvetica, sans-serif;">Processor</tspan></text></g><g fill="#9999FF" stroke="#9999FF" stroke-opacity="1" opacity="0" transform="scale(1,1) translate(0,0)"><path fill="none" stroke-width="1" stroke-dasharray="none" d="M0,0"/></g></g><g width="217.648" height="108.824" transform="scale(1,1) translate(1067.008,570.239)"><g transform="scale(1,1) translate(0,0)" stroke="#7F7F7F" fill="#4bacc6" fill-opacity="1" stroke-opacity="1"><path d="M0,21.765 a21.765,21.765 0 0,1 21.765,-21.765 l174.118,0 a21.765,21.765 0 0,1 21.765,21.765 l0,65.294 a21.765,21.765 0 0,1 -21.765,21.765 l-174.118,0 a21.765,21.765 0 0,1 -21.765,-21.765 z" stroke-width="1" stroke-dasharray="none"/></g><g width="204.01574437940292" height="95.19168504653621" transform="scale(1,1) translate(6.816,6.816)"><text width="204.01574437940292" height="94.99999809265137" transform="scale(1,1) translate(0,0.09584347694242012)" xml:space="preserve"><tspan xml:space="preserve" text-rendering="optimizeSpeed" font-size="13.88888888888889" font-weight="normal" font-style="normal" text-decoration="none" fill="#ffffff" opacity="1" x="72.277" text-anchor="start" y="12.5" textLength="59.4618034362793" style="font-family: Arial, Helvetica Neue, Helvetica, sans-serif;">Database</tspan><tspan xml:space="preserve" text-rendering="optimizeSpeed" font-size="13.88888888888889" font-weight="normal" font-style="normal" text-decoration="none" fill="#ffffff" opacity="1" x="3.563" text-anchor="start" y="28.333" textLength="196.88946533203125" style="font-family: Arial, Helvetica Neue, Helvetica, sans-serif;">[Container: Relational Database</tspan><tspan xml:space="preserve" text-rendering="optimizeSpeed" font-size="13.88888888888889" font-weight="normal" font-style="normal" text-decoration="none" fill="#ffffff" opacity="1" x="74.599" text-anchor="start" y="44.167" textLength="54.81770706176758" style="font-family: Arial, Helvetica Neue, Helvetica, sans-serif;">Schema]</tspan><tspan xml:space="preserve" text-rendering="optimizeSpeed" font-size="13.88888888888889" font-weight="normal" font-style="normal" text-decoration="none" fill="#ffffff" opacity="1" x="0" text-anchor="start" y="75.833" textLength="201.229736328125" style="font-family: Arial, Helvetica Neue, Helvetica, sans-serif;">Stores processed data from NLP</tspan><tspan xml:space="preserve" text-rendering="optimizeSpeed" font-size="13.88888888888889" font-weight="normal" font-style="normal" text-decoration="none" fill="#ffffff" opacity="1" x="89.262" text-anchor="start" y="91.667" textLength="25.491897583007812" style="font-family: Arial, Helvetica Neue, Helvetica, sans-serif;">Tool</tspan></text></g><g fill="#9999FF" stroke="#9999FF" stroke-opacity="1" opacity="0" transform="scale(1,1) translate(0,0)"><path fill="none" stroke-width="1" stroke-dasharray="none" d="M0,0"/></g></g><g width="324.821" height="162.41" transform="scale(1,1) translate(1542.903,815.937)"><g transform="scale(1,1) translate(0,0)" stroke="#7F7F7F" fill="#4bacc6" fill-opacity="1" stroke-opacity="1"><path d="M0,32.482 a32.482,32.482 0 0,1 32.482,-32.482 l259.857,0 a32.482,32.482 0 0,1 32.482,32.482 l0,97.446 a32.482,32.482 0 0,1 -32.482,32.482 l-259.857,0 a32.482,32.482 0 0,1 -32.482,-32.482 z" stroke-width="1" stroke-dasharray="none"/></g><g width="304.9103990972465" height="142.49999713897705" transform="scale(1,1) translate(9.955,9.955)"><text width="304.9103990972465" height="142.49999713897705" transform="scale(1,1) translate(0,0)" xml:space="preserve"><tspan xml:space="preserve" text-rendering="optimizeSpeed" font-size="13.88888888888889" font-weight="normal" font-style="normal" text-decoration="none" fill="#ffffff" opacity="1" x="121.574" text-anchor="start" y="12.5" textLength="61.76215362548828" style="font-family: Arial, Helvetica Neue, Helvetica, sans-serif;">Processor</tspan><tspan xml:space="preserve" text-rendering="optimizeSpeed" font-size="13.88888888888889" font-weight="normal" font-style="normal" text-decoration="none" fill="#ffffff" opacity="1" x="99.952" text-anchor="start" y="28.333" textLength="105.00578308105469" style="font-family: Arial, Helvetica Neue, Helvetica, sans-serif;">[Container: Java]</tspan><tspan xml:space="preserve" text-rendering="optimizeSpeed" font-size="13.88888888888889" font-weight="normal" font-style="normal" text-decoration="none" fill="#ffffff" opacity="1" x="11.57" text-anchor="start" y="60" textLength="277.9079895019531" style="font-family: Arial, Helvetica Neue, Helvetica, sans-serif;">Process data obtained from Crawler using an</tspan><tspan xml:space="preserve" text-rendering="optimizeSpeed" font-size="13.88888888888889" font-weight="normal" font-style="normal" text-decoration="none" fill="#ffffff" opacity="1" x="98.788" text-anchor="start" y="75.833" textLength="107.33505249023438" style="font-family: Arial, Helvetica Neue, Helvetica, sans-serif;">external NLT Tool</tspan><tspan xml:space="preserve" text-rendering="optimizeSpeed" font-size="13.88888888888889" font-weight="normal" font-style="normal" text-decoration="none" fill="#ffffff" opacity="1" x="103.822" text-anchor="start" y="91.667" textLength="97.265625" style="font-family: Arial, Helvetica Neue, Helvetica, sans-serif;">Simple Analysis</tspan><tspan xml:space="preserve" text-rendering="optimizeSpeed" font-size="13.88888888888889" font-weight="normal" font-style="normal" text-decoration="none" fill="#ffffff" opacity="1" x="96.104" text-anchor="start" y="107.5" textLength="112.70254516601562" style="font-family: Arial, Helvetica Neue, Helvetica, sans-serif;">Complex Analyisis</tspan><tspan xml:space="preserve" text-rendering="optimizeSpeed" font-size="13.88888888888889" font-weight="normal" font-style="normal" text-decoration="none" fill="#ffffff" opacity="1" x="18.912" text-anchor="start" y="123.333" textLength="263.223388671875" style="font-family: Arial, Helvetica Neue, Helvetica, sans-serif;">Garbaga Removal (which means removing</tspan><tspan xml:space="preserve" text-rendering="optimizeSpeed" font-size="13.88888888888889" font-weight="normal" font-style="normal" text-decoration="none" fill="#ffffff" opacity="1" x="83.872" text-anchor="start" y="139.167" textLength="137.16726684570312" style="font-family: Arial, Helvetica Neue, Helvetica, sans-serif;">emojis and other stuff)</tspan></text></g></g><g width="265.221" height="132.61" transform="scale(1,1) translate(1015.322,818.437)"><g transform="scale(1,1) translate(0,0)" stroke="#7F7F7F" fill="#4bacc6" fill-opacity="1" stroke-opacity="1"><path d="M0,26.522 a26.522,26.522 0 0,1 26.522,-26.522 l212.177,0 a26.522,26.522 0 0,1 26.522,26.522 l0,79.566 a26.522,26.522 0 0,1 -26.522,26.522 l-212.177,0 a26.522,26.522 0 0,1 -26.522,-26.522 z" stroke-width="1" stroke-dasharray="none"/></g><g width="248.80184694280462" height="116.19135964177285" transform="scale(1,1) translate(8.21,8.21)"><text width="248.80184694280462" height="110.83333110809326" transform="scale(1,1) translate(0,2.6790142668397934)" xml:space="preserve"><tspan xml:space="preserve" text-rendering="optimizeSpeed" font-size="13.88888888888889" font-weight="normal" font-style="normal" text-decoration="none" fill="#FFFFFF" opacity="1" x="94.54" text-anchor="start" y="12.5" textLength="55.844905853271484" style="font-family: Arial, Helvetica Neue, Helvetica, sans-serif;">NLP Tool</tspan><tspan xml:space="preserve" text-rendering="optimizeSpeed" font-size="13.88888888888889" font-weight="normal" font-style="normal" text-decoration="none" fill="#FFFFFF" opacity="1" x="3.575" text-anchor="start" y="28.333" textLength="241.65219116210938" style="font-family: Arial, Helvetica Neue, Helvetica, sans-serif;">[Container: Machine Learning Platform]</tspan><tspan xml:space="preserve" text-rendering="optimizeSpeed" font-size="13.88888888888889" font-weight="normal" font-style="normal" text-decoration="none" fill="#FFFFFF" opacity="1" x="17.862" text-anchor="start" y="60" textLength="209.21585083007812" style="font-family: Arial, Helvetica Neue, Helvetica, sans-serif;">performs advaneed and basic text</tspan><tspan xml:space="preserve" text-rendering="optimizeSpeed" font-size="13.88888888888889" font-weight="normal" font-style="normal" text-decoration="none" fill="#FFFFFF" opacity="1" x="31.389" text-anchor="start" y="75.833" textLength="182.16143798828125" style="font-family: Arial, Helvetica Neue, Helvetica, sans-serif;">analysis(removes unccessary</tspan><tspan xml:space="preserve" text-rendering="optimizeSpeed" font-size="13.88888888888889" font-weight="normal" font-style="normal" text-decoration="none" fill="#FFFFFF" opacity="1" x="12.472" text-anchor="start" y="91.667" textLength="220.00869750976562" style="font-family: Arial, Helvetica Neue, Helvetica, sans-serif;">information such as links, emotions,</tspan><tspan xml:space="preserve" text-rendering="optimizeSpeed" font-size="13.88888888888889" font-weight="normal" font-style="normal" text-decoration="none" fill="#FFFFFF" opacity="1" x="108.957" text-anchor="start" y="107.5" textLength="30.8883056640625" style="font-family: Arial, Helvetica Neue, Helvetica, sans-serif;">etc..)</tspan></text></g></g></g></svg>