<?xml version="1.0" encoding="utf-8"?>
<svg xmlns="http://www.w3.org/2000/svg" xmlns:xlink="http://www.w3.org/1999/xlink" version= "1.1" width="462px" height="329px" viewBox="220 952 462 329">
<g id="layer1">
<g style="fill:rgb(242,102,85); fill-opacity:1.0; stroke-linejoin: miter">
<path d="M219.999,951.7123C219.92294,951.7123,219.85,951.7425,219.79623,951.79626C219.74246,951.85004,219.71225,951.923,219.71225,951.999L219.71326,1281.0C219.71326,1281.1583,219.84164,1281.2867,220.0,1281.2867L682.001,1281.2877C682.077,1281.2877,682.14996,1281.2576,682.20374,1281.2037C682.2575,1281.1499,682.2877,1281.077,682.2877,1281.001L682.28674,952.0C682.28674,951.8416,682.1584,951.71326,682.0,951.71326L219.999,951.7123 Z"/>
</g>
<g style="fill:rgb(0,0,0); fill-opacity:0.4; stroke-linejoin: miter">
<path d="M612.5575,1247.5253L610.9447,1247.7606Q605.8533,1248.0519,592.0502,1248.2113Q585.14856,1248.2904,576.069,1248.337Q551.4647,1248.4244,543.9303,1248.4025Q519.0669,1248.3949,490.27985,1248.2487Q475.8866,1248.1754,460.51233,1248.068Q421.21832,1247.768,412.1825,1247.6666Q380.02878,1247.3458,353.59854,1246.9816Q321.81253,1246.5172,317.1724,1246.4113Q306.10342,1246.2135,296.46536,1246.005Q253.42894,1245.0255,260.72787,1244.4181Q263.9365,1244.1122,276.60416,1243.9364Q282.93802,1243.849,291.6367,1243.7938Q294.6481,1243.7457,322.77304,1243.7023Q369.51376,1243.683,436.15222,1244.2216Q469.47125,1244.5089,497.81427,1244.8527Q532.15405,1245.2943,537.5294,1245.3995Q549.83484,1245.5927,560.8961,1245.8002Q567.9049,1245.9078,588.75903,1246.4059Q596.27295,1246.6031,601.42163,1246.7928Q611.7195,1247.173,612.5575,1247.5253"/>
</g>
<g style="fill:rgb(0,0,0); fill-opacity:1.0; stroke-linejoin: miter">
<path d="M435.86096,1039.2422L436.89508,1039.2605Q440.52734,1039.2795,446.31177,1040.269Q449.14023,1040.3811,460.3671,1045.0525Q469.0085,1049.269,475.70596,1056.226Q482.6263,1063.3185,486.71143,1072.6105Q488.22046,1074.7335,490.79694,1086.3505Q491.53784,1091.0565,491.45026,1095.9292Q491.3603,1106.009,487.61908,1115.4197Q482.6314,1126.3728,480.8142,1127.9875Q478.03348,1131.8169,474.56937,1135.1665Q458.81253,1150.4752,435.38705,1150.9657Q424.49295,1150.8846,415.29483,1147.1246Q404.30228,1142.1151,402.68826,1140.2892Q398.85168,1137.4963,395.502,1134.0171Q388.58167,1126.9163,384.49506,1117.6365Q382.51172,1113.1848,381.35657,1108.5642Q379.19373,1096.865,379.75516,1094.3231Q379.8572,1084.2296,383.56406,1074.8488Q385.31775,1070.3019,387.77252,1066.2206Q394.52332,1056.4249,396.71515,1055.0245Q412.76178,1039.6572,435.86096,1039.2422 M425.9735,1021.4107L425.40698,1021.4096Q378.0848,1024.4849,361.23196,1057.3563Q351.83768,1077.726,356.51553,1085.9677L335.41318,1112.2859Q330.60083,1118.9098,330.36035,1121.8422Q329.86823,1124.4398,333.09497,1126.8959Q337.67267,1130.3107,343.80942,1131.2324Q344.95352,1131.7913,345.32236,1133.05Q345.81284,1133.332,343.72568,1139.7383Q339.87598,1145.12,340.52765,1145.3683Q339.66663,1147.2653,345.14746,1151.5494Q345.84802,1151.7081,341.79047,1156.1527Q341.36523,1156.7428,341.37433,1157.5282Q347.07233,1164.8549,346.5542,1166.7926L342.7737,1179.8516Q342.22556,1183.3066,342.98862,1184.8865Q347.4067,1193.5645,356.38895,1195.2422L385.57376,1195.9658Q387.41922,1197.7141,389.44888,1204.0906L390.59512,1208.8069L388.85605,1209.2197L390.66623,1213.9417L493.0633,1214.7971Q488.68726,1206.4268,487.04376,1201.8933Q484.03424,1182.3693,484.326,1167.7648Q484.89355,1161.8656,488.2547,1156.078L503.91296,1132.1189Q507.76733,1123.4622,509.99536,1114.6396Q516.2993,1091.9891,508.47815,1068.3605Q489.97104,1022.8352,425.9735,1021.4107 Z"/>
</g>
<g style="fill:rgb(0,0,0); fill-opacity:0.99607843; stroke-linejoin: miter">
<path d="M496.57513,1098.092L495.90826,1106.9036Q491.46887,1133.5127,470.8756,1149.3163Q450.14078,1165.1061,422.24802,1161.8558Q395.63925,1157.4161,379.83557,1136.823Q374.77246,1130.1665,371.52393,1122.3396L368.8059,1114.2986Q366.57983,1106.0037,366.62915,1097.0066Q367.55667,1069.4037,386.0432,1051.223Q404.5297,1033.0427,432.14478,1032.5767Q459.74857,1033.5042,477.92868,1051.9904Q496.109,1070.4767,496.57513,1098.092"/>
</g>
<g style="fill:rgb(0,0,0); fill-opacity:0.99607843; stroke-linejoin: miter">
<path d="M352.22757,1213.1843L436.52573,1213.8889L520.824,1214.5935Q520.6844,1231.3121,520.5447,1248.0314Q436.24646,1247.3273,351.94833,1246.6234Q352.08792,1229.9042,352.22757,1213.1843"/>
</g>
<g style="fill:rgb(0,0,0); fill-opacity:0.99607843; stroke-linejoin: miter">
<path d="M391.10342,1188.2046L437.45407,1187.8574L483.8048,1187.5098Q483.8573,1194.4858,483.90967,1201.4614Q437.55887,1201.8098,391.20828,1202.158Q391.15585,1195.1812,391.10342,1188.2046"/>
</g>
<g style="fill:rgb(255,28,0); fill-opacity:0.99607843; stroke-linejoin: miter">
<path d="M503.1233,1097.5691L503.1233,1097.5693L503.12317,1097.5693L503.1233,1097.5693L503.1233,1097.5691L503.1233,1097.5693L503.12317,1097.5693Q503.1233,1097.5693,503.1233,1097.5691"/>
</g>
<g style="fill:rgb(0,0,0); fill-opacity:0.99607843; stroke-linejoin: miter">
<path d="M576.16113,1246.3014L576.07184,1245.6891C575.6573,1242.8258,575.5006,1240.3834,575.54956,1238.3605C575.5559,1238.0948,575.55505,1237.0594,575.6698,1235.2574C575.99207,1230.2098,576.1735,1227.5381,576.18585,1227.2388C576.24536,1225.7866,576.2562,1224.5403,576.21655,1223.4956C576.2049,1223.189,576.1442,1222.5117,575.99304,1221.4634L575.1274,1217.5115C575.0771,1217.3479,574.9753,1216.6309,574.8283,1215.3589C574.5991,1213.3762,574.4978,1210.7891,574.66034,1207.6052C574.79144,1205.0376,575.17645,1203.0508,575.67365,1201.636L576.102,1200.2947C577.31616,1198.56,578.08484,1197.1633,578.4792,1196.1299C578.86847,1195.1096,579.27454,1193.4277,579.6271,1191.0566C575.62964,1181.0294,571.368,1180.3448,571.368,1180.3448C567.2756,1179.6871,562.91235,1188.3716,562.91235,1188.3716C562.54315,1192.5857,562.3184,1195.4365,562.23816,1196.9248L562.0667,1199.8657C562.4445,1206.4517,562.83563,1211.4106,563.3043,1214.7341C563.85455,1218.636,564.7648,1221.8242,565.9706,1224.3079C566.3856,1230.2518,566.60443,1234.2279,566.67944,1236.2318C566.7355,1237.7277,566.67645,1239.5492,566.52386,1241.7052C566.48944,1242.1906,566.53534,1242.5487,566.60547,1242.7714C566.7301,1243.1671,566.94763,1243.3771,567.2068,1243.4945C567.47797,1243.6168,568.1091,1243.7509,569.1428,1243.8143L569.9864,1235.1754L569.03284,1244.3878C570.08936,1245.7418,571.0428,1246.4362,571.8445,1246.6688C572.5373,1246.8705,573.9541,1246.8121,576.16113,1246.3014 Z"/>
</g>
<g style="fill:rgb(0,0,0); fill-opacity:0.99607843; stroke-linejoin: miter">
<path d="M569.40564,1207.8838L569.40576,1207.8843L569.40576,1207.8843L569.40564,1207.8838 Z"/>
</g>
<g style="fill:rgb(125,139,150); fill-opacity:0.99607843; stroke-linejoin: miter">
<path d="M574.82513,1171.0656L574.8252,1171.0656L574.8252,1171.0656L574.82513,1171.0656 Z"/>
</g>
<g style="fill:rgb(0,0,0); fill-opacity:1.0; stroke-linejoin: miter">
<path d="M571.35736,1150.2943L571.36163,1150.2643Q571.51263,1146.9108,571.61884,1146.3788Q571.6969,1145.777,571.82324,1145.3024Q572.3501,1143.6046,572.4435,1143.0006Q572.652,1141.7396,572.6599,1140.986Q572.6771,1139.3477,572.50415,1138.668Q572.4174,1138.2183,572.27295,1137.8105L572.11176,1137.4187Q571.93353,1137.0425,571.6936,1136.73Q571.2088,1136.105,570.5408,1135.7212Q570.0643,1135.3708,568.72284,1135.1128Q567.8047,1134.9863,566.72876,1135.1584Q565.5139,1135.3511,563.57965,1136.008Q562.89166,1136.104,562.56323,1136.0945Q561.7259,1136.2385,561.1561,1134.9468Q560.5296,1136.1282,560.49225,1136.7375Q560.3188,1137.7041,561.2417,1139.9966L565.1959,1145.9652L571.35736,1150.2943 Z"/>
</g>
<g style="fill:rgb(255,186,155); fill-opacity:0.99607843; stroke-linejoin: miter">
<path d="M571.94604,1151.6483L571.9459,1151.6486L571.4666,1149.2167L571.4663,1148.2838Q570.439,1148.2887,569.8464,1147.8649Q569.308,1147.4445,569.0008,1146.6046Q568.7732,1145.878,568.7809,1145.5436Q568.7698,1145.327,568.7805,1145.1129Q568.9016,1143.7491,568.85944,1143.6771Q568.86444,1143.3287,568.6168,1142.8595Q567.88226,1141.8876,567.25134,1142.2113Q567.0738,1142.2692,566.8217,1142.6617Q566.7153,1142.7792,566.2303,1144.0104Q566.0947,1144.3026,566.01013,1144.2223Q565.8932,1144.0326,565.85535,1143.7938Q565.542,1142.0641,565.38965,1141.4493Q565.08716,1140.3282,564.9817,1140.1548Q564.5894,1139.051,563.3873,1138.4116Q561.5146,1137.7043,560.63556,1138.5149Q559.9494,1140.6954,559.9461,1141.381Q559.8822,1142.139,560.43365,1142.8456Q558.991,1145.2123,559.0247,1145.7374Q558.9235,1146.38,560.2313,1146.3483Q560.05194,1147.3036,560.1422,1147.5529Q560.2002,1147.8429,560.6761,1147.9667Q560.3382,1148.0394,560.4357,1148.4545Q560.53827,1148.8177,560.9821,1149.6522Q560.9341,1150.6517,561.1054,1151.0975Q561.3111,1151.5114,561.5257,1151.57Q561.84937,1151.7865,563.1692,1151.7599L564.6376,1151.192L565.59564,1152.2479L571.94604,1151.6483 Z"/>
</g>
<g style="fill:rgb(0,0,0); fill-opacity:0.99607843; stroke-linejoin: miter">
<path d="M560.47675,1151.4899L560.4767,1151.4899L560.4768,1151.4901L560.4767,1151.4899 Z"/>
</g>
<g style="fill:rgb(255,255,255); fill-opacity:1.0; stroke-linejoin: miter">
<path d="M570.31934,1187.5886L570.6936,1188.1973Q573.6845,1193.1367,575.28613,1193.6855Q577.07733,1194.4941,579.7793,1193.585Q579.9023,1192.8926,580.0188,1192.196Q580.6839,1188.3813,580.42584,1185.4697Q580.4119,1184.9222,580.08594,1182.9755Q578.6076,1176.0001,578.61975,1175.7667Q578.4879,1175.1136,578.255,1173.1256Q577.9754,1170.5677,578.0468,1163.3673Q577.9519,1161.0292,577.8677,1160.6447Q577.77264,1159.403,577.1465,1157.6112Q577.0479,1157.17,576.0628,1155.5145Q575.0328,1153.9093,572.59546,1151.6725L571.6029,1149.3514L564.6524,1151.6815L564.9259,1153.7506Q561.3869,1160.0345,561.0374,1163.1444Q560.44745,1166.5289,560.5665,1170.1415Q560.4714,1170.2277,561.22766,1181.611Q561.39545,1185.1895,561.36865,1186.6167Q561.3255,1189.7622,560.7721,1191.1348Q563.3579,1192.051,564.9783,1191.3569Q566.5401,1190.8687,570.31934,1187.5886 Z"/>
</g>
<g style="fill:rgb(0,0,0); fill-opacity:0.99607843; stroke-linejoin: miter">
<path d="M562.6016,1142.1127L562.5271,1142.0853Q562.0388,1141.8942,561.737,1141.8951Q561.6701,1141.8961,561.6055,1141.9056Q561.5722,1141.9066,561.41614,1141.9501Q561.2613,1141.9974,560.9955,1142.1317Q561.4466,1142.0773,561.7184,1142.0765Q561.98193,1142.0712,562.6016,1142.1127 Z"/>
</g>
<g style="fill:rgb(0,0,0); fill-opacity:0.99607843; stroke-linejoin: miter">
<path d="M562.4681,1143.4012L562.4682,1143.4012L562.4682,1143.4015L562.4681,1143.4012 Z"/>
</g>
<g style="fill:rgb(255,255,255); fill-opacity:0.99607843; stroke-linejoin: miter">
<path d="M562.3522,1142.6849L562.3522,1142.6852L561.4642,1142.3981Q561.3839,1142.5629,561.3864,1142.6647Q561.3812,1142.7626,561.4558,1142.9974L562.3522,1142.6849 Z"/>
</g>
<g style="fill:rgb(0,0,0); fill-opacity:0.99607843; stroke-linejoin: miter">
<path d="M561.469,1142.392L561.7134,1142.671L561.47473,1142.9818Q561.41003,1142.8619,561.38727,1142.797Q561.3662,1142.7325,561.366,1142.7206Q561.3615,1142.695,561.3612,1142.6705Q561.361,1142.6456,561.36505,1142.6215Q561.365,1142.6095,561.3848,1142.5514Q561.4064,1142.4928,561.469,1142.392 Z"/>
</g>
<g style="fill:rgb(0,0,0); fill-opacity:0.99607843; stroke-linejoin: miter">
<path d="M567.4654,1241.8414L567.46533,1241.8417L563.4166,1242.943Q563.0521,1243.0209,562.7116,1243.1124Q562.54297,1243.159,562.3891,1243.2147Q561.5767,1243.4655,561.52783,1244.1539Q561.47095,1244.4078,561.6915,1245.3937L569.6741,1244.2911L567.4654,1241.8414 Z"/>
</g>
<g style="fill:rgb(0,0,0); fill-opacity:0.99607843; stroke-linejoin: miter">
<path d="M568.1838,1241.8285L568.0005,1242.0111Q566.7145,1243.2855,565.8719,1243.5968Q565.4023,1243.8036,564.89484,1243.9154Q564.6056,1243.9801,564.29956,1244.0292Q562.2965,1244.3073,562.2273,1244.3556Q561.5415,1244.5148,561.25867,1244.7648Q560.85657,1245.0199,560.97327,1245.8483Q561.17065,1246.6205,561.96,1247.2218Q562.8259,1247.9215,565.0642,1247.9574Q565.2615,1247.9679,566.3115,1247.9442L573.46246,1247.745Q574.34436,1247.8185,574.7835,1247.7955Q575.7505,1247.7311,576.06006,1247.3541Q576.49524,1246.9425,576.46295,1245.7816Q576.50635,1245.1166,575.912,1242.203L573.4719,1243.9987L568.1838,1241.8285 Z"/>
</g>
<g style="fill:rgb(254,186,155); fill-opacity:0.99607843; stroke-linejoin: miter">
<path d="M529.6463,1152.2365L529.6464,1152.2367L527.9115,1154.8126Q530.9662,1155.401,534.0208,1155.9891Q534.4089,1154.92,534.79724,1153.8514L529.6463,1152.2365"/>
</g>
<g style="fill:rgb(33,95,137); fill-opacity:0.99607843; stroke-linejoin: miter">
<path d="M552.86285,1203.6262L552.86285,1203.6262L552.8629,1203.6267L552.86285,1203.6262"/>
</g>
<g style="fill:rgb(255,255,255); fill-opacity:1.0; stroke-linejoin: miter">
<path d="M383.06387,1058.0597L383.29886,1057.7694Q387.0901,1051.7733,398.63766,1045.52Q409.914,1039.801,422.367,1038.2056Q432.00964,1036.6211,446.7071,1038.2737Q463.50204,1040.9292,472.1342,1045.1738Q485.2557,1050.7228,490.02863,1066.3768Q497.0645,1096.1111,489.8628,1105.2874Q486.46204,1109.1494,477.3287,1108.3457Q473.9908,1108.1135,467.96573,1106.6868Q448.64474,1101.4602,444.70377,1100.8796Q437.99918,1099.6519,433.9664,1099.8115Q428.0834,1099.928,421.79,1101.2073Q420.68423,1101.2683,399.32812,1106.4854Q397.21497,1106.9778,395.0927,1107.3069Q388.5246,1108.238,385.07397,1106.5618Q381.6989,1105.325,379.42792,1100.5728Q377.3531,1095.9255,376.83328,1086.6227Q376.37747,1069.9056,383.06387,1058.0597"/>
</g>
<g style="fill:rgb(0,0,0); fill-opacity:1.0; stroke-linejoin: miter">
<path d="M440.15698,1044.543L439.61816,1044.8877Q437.51996,1046.2966,436.3357,1048.198L436.1278,1047.8174Q435.90735,1047.4412,435.63666,1047.0825Q435.36597,1046.7236,435.04498,1046.3826Q434.4052,1045.7,433.55554,1045.0874Q436.37872,1044.7588,437.41876,1044.6951Q438.86267,1044.583,440.15698,1044.543 M421.1123,1042.8047L421.97668,1042.9512Q425.3794,1043.5527,427.90454,1044.4058Q426.44238,1044.8489,425.23566,1045.3462Q423.20483,1046.2358,422.59882,1046.6758Q420.57562,1046.5408,420.09723,1046.5593Q419.07965,1046.5593,418.14252,1046.6726L417.22546,1046.814Q414.5348,1047.3232,412.5678,1048.8516Q412.2033,1048.8826,411.6504,1048.958L412.34314,1048.0654Q413.08057,1047.199,413.99713,1046.437Q414.9137,1045.675,416.00934,1045.0173Q418.19836,1043.7024,421.1123,1042.8047 M420.18524,1048.4829L420.21613,1048.4829Q420.34003,1048.4832,420.46533,1048.4854Q420.13202,1048.8616,419.7984,1049.492Q419.4406,1049.3845,419.0656,1049.2859Q418.78918,1049.2095,418.10107,1049.0532Q417.57245,1048.9661,416.91595,1048.8958L417.25085,1048.8091Q417.5893,1048.7275,417.94196,1048.6663L418.29816,1048.6104L418.66138,1048.5645L419.03174,1048.5288L419.40912,1048.5032L419.79364,1048.4878L420.18524,1048.4829 M450.19864,1044.4653L450.44504,1044.4951Q451.4241,1044.6213,452.3002,1044.8706L461.0941,1047.7456Q459.01688,1047.3696,457.54526,1047.7346Q456.97617,1047.8613,456.35867,1048.1714Q455.34848,1048.7463,454.1691,1049.6848Q453.80344,1049.689,453.24637,1049.7378Q453.1569,1049.3721,452.8292,1048.4712Q452.63498,1047.9524,452.38388,1047.415Q452.2866,1047.0098,452.12436,1046.6389L451.9459,1046.2769Q451.3596,1045.2161,450.19864,1044.4653 M444.6645,1044.6699L445.77753,1044.821L446.7752,1045.0247L447.65753,1045.2805L448.42447,1045.5886L449.07602,1045.949L449.6122,1046.3618L450.033,1046.8269L450.3384,1047.3442L450.5674,1048.0449Q450.7767,1048.488,451.05917,1049.2214L451.34158,1050.0688Q450.99063,1050.1519,450.47372,1050.3176Q449.55893,1049.6929,448.64377,1049.207L447.72845,1048.7561L446.813,1048.3743L445.89734,1048.062L444.98145,1047.8191L444.0653,1047.6455L443.149,1047.5415Q441.9375,1047.4873,441.906,1047.5112Q440.1361,1047.5747,438.91486,1048.0005Q439.33105,1047.5498,439.8266,1047.138Q440.32214,1046.7263,440.89703,1046.3538L441.49182,1045.9907Q442.10638,1045.6377,442.8003,1045.3235L443.5141,1045.019L444.263,1044.7344L444.6645,1044.6699 M430.79205,1045.6084L431.4831,1045.99Q433.46722,1047.1602,434.38367,1048.6362Q434.68915,1049.1282,434.87598,1049.654L434.71814,1050.2148Q434.5135,1050.3542,434.22076,1050.5812L433.30133,1050.0486Q432.37964,1049.5347,431.4496,1049.0969Q430.5196,1048.6594,429.58112,1048.2981Q427.70648,1047.5757,425.7895,1047.1582Q427.44012,1046.5127,428.34076,1046.2642Q429.4718,1045.9231,430.79205,1045.6084 M459.2938,1049.4373L459.70517,1049.4495Q461.38852,1049.5491,463.67416,1050.4451Q463.17136,1050.7526,462.7061,1051.1461Q462.33517,1051.4662,462.2133,1051.5936Q462.12643,1051.6815,462.0411,1051.8407Q461.4838,1051.5333,460.93082,1051.2699Q460.37784,1051.0062,459.8292,1050.7865L459.28165,1050.5775Q458.19113,1050.1819,457.10867,1049.9612L457.27878,1049.8557L457.4714,1049.7681Q457.9764,1049.5793,458.09616,1049.5664Q458.31613,1049.5146,458.5518,1049.4836Q458.78738,1049.4526,459.0386,1049.4424L459.2938,1049.4373 M414.5598,1050.6896L414.9051,1050.6925Q415.07605,1050.6879,415.9516,1050.7384Q416.65448,1050.7872,417.37128,1050.8851L417.73053,1050.9371L418.44775,1051.1097Q418.72913,1051.182,418.9989,1051.2596Q418.73492,1051.8351,418.5166,1052.6866Q417.07758,1052.2921,415.3562,1052.3331Q414.80682,1052.3427,414.21582,1052.391Q414.07452,1052.3969,413.30573,1052.485L412.9356,1052.5355Q412.15778,1052.6925,411.6797,1052.8075Q412.02252,1052.2682,412.4121,1051.7963Q412.60693,1051.5604,412.81335,1051.3412L413.02277,1051.1261Q413.23718,1050.9154,413.45477,1050.7216Q414.1256,1050.6862,414.5598,1050.6896 M454.88364,1051.6139L455.41568,1051.6495L455.9514,1051.711L456.4907,1051.7985L457.0336,1051.9115L457.58005,1052.0504L458.13016,1052.215L458.68393,1052.4054L459.24124,1052.6217L459.80222,1052.8639Q459.19473,1052.7584,458.57834,1052.6996Q458.2701,1052.6705,457.9597,1052.653Q457.6492,1052.6351,457.33652,1052.6293L457.02322,1052.6263Q456.67215,1052.6263,456.31833,1052.6412Q455.96445,1052.6559,455.60776,1052.6852L455.2504,1052.7181Q454.53427,1052.7914,453.80685,1052.9235Q454.30563,1052.1246,454.88364,1051.6139 M466.04727,1051.5084L466.1392,1051.5543Q466.5076,1051.7394,466.8882,1051.9401L466.8835,1051.9401Q466.90598,1052.2194,466.90402,1052.5258L466.89597,1052.839Q466.8818,1053.159,466.8433,1053.5062Q466.7662,1054.2008,466.59164,1055.0045Q465.65152,1054.2443,465.17087,1053.8851Q464.13474,1053.118,463.6877,1052.8407Q463.92325,1052.6239,464.17038,1052.4376Q464.41745,1052.2513,464.67624,1052.0958L464.9379,1051.9476Q465.46457,1051.6669,466.04727,1051.5084 M442.1988,1049.4333L442.87634,1049.4558Q445.58942,1049.6348,448.34744,1051.2472Q447.19302,1051.889,446.20175,1052.7853Q445.705,1053.2335,445.24673,1053.7455L444.79807,1054.2733Q444.35904,1054.8168,443.95853,1055.4242Q443.7775,1055.3937,443.58017,1055.4059Q440.71457,1054.5306,439.23465,1054.2206Q437.80893,1053.0184,436.88205,1052.3588Q436.85648,1052.0712,436.89816,1051.9865Q437.004,1051.4462,437.1653,1050.9384L437.43222,1050.7911Q438.51508,1050.2083,439.7906,1049.719Q440.19,1049.6079,441.12628,1049.4897Q441.66162,1049.4333,442.1988,1049.4333 M423.03174,1048.648L423.03174,1048.6482Q424.13147,1048.7708,425.2213,1049.0012Q426.31122,1049.2317,427.3913,1049.5701L428.46887,1049.935Q430.61914,1050.7194,432.73022,1051.9349Q431.89368,1052.7604,431.03058,1054.2804Q429.35126,1054.6866,426.98352,1055.7928Q426.78668,1054.9598,426.4126,1054.2179L425.9942,1053.4989L425.48724,1052.8258L424.8916,1052.1981L424.20734,1051.6163L423.43445,1051.0802L422.57294,1050.5897L421.61853,1050.145Q422.22583,1049.1934,423.03174,1048.648 M450.1982,1052.4865L450.33664,1052.5919Q450.89053,1053.0165,451.4462,1053.4984Q449.71683,1054.0214,447.9366,1054.8568Q447.31076,1055.1473,447.33823,1055.1632Q446.7659,1055.6129,446.0663,1056.2711L445.81613,1056.1495Q446.21524,1055.5875,446.6531,1055.0946Q447.09103,1054.6017,447.56772,1054.1774L448.0541,1053.7701Q449.04398,1052.9908,450.1982,1052.4865 M434.5589,1055.4596L434.6526,1055.4601Q435.03064,1055.464,435.46188,1055.5004L435.45743,1055.5004L435.49374,1055.6102L435.61032,1055.9342Q435.66867,1056.0961,435.83017,1056.4552Q434.55627,1056.3636,433.79352,1056.3285Q433.9079,1056.1932,434.16046,1055.8566L434.372,1055.5609L434.4411,1055.4603L434.43665,1055.4603L434.5589,1055.4596 M470.74014,1051.9352L471.10355,1052.0778Q472.5682,1052.6769,474.20877,1053.7391Q475.99258,1054.9332,477.25552,1056.2072L477.5632,1056.527Q477.218,1056.58,476.86813,1056.6676Q476.24643,1056.8334,475.9645,1056.9418Q475.70193,1055.6337,474.87216,1054.6359Q474.673,1054.463,472.9152,1053.3053L472.02817,1052.735L470.74014,1051.9352 M420.8167,1051.8973L420.8167,1051.8976L421.6236,1052.2767L422.35016,1052.6925L422.9964,1053.1449L423.56226,1053.6337L424.04773,1054.1595L424.45282,1054.7216L424.77765,1055.3204L425.02203,1055.9559L425.18616,1056.628Q424.51782,1056.7352,423.64642,1056.9728L423.52448,1056.5775L423.3504,1056.1925L423.1242,1055.8175L422.8459,1055.4528L422.51544,1055.098Q422.15894,1054.7487,421.69818,1054.4196Q421.23956,1054.0902,420.6682,1053.7816Q420.48633,1053.63,420.3534,1053.5424Q420.49268,1052.5746,420.8167,1051.8973 M453.6263,1055.6019L453.7963,1055.7836Q454.47635,1056.5157,455.15903,1057.3322Q454.9285,1057.317,454.77438,1057.3119Q454.59378,1057.1176,454.4365,1056.9249L454.285,1056.733Q454.13943,1056.5414,454.01718,1056.3519Q453.89493,1056.1625,453.79605,1055.975L453.70303,1055.788L453.62167,1055.6019L453.6263,1055.6019 M450.11905,1056.0023L449.9067,1056.1798Q449.05856,1056.8802,448.22794,1057.4196L447.86844,1057.2245Q448.07382,1057.0409,448.42343,1056.7545L448.41885,1056.7545Q449.4612,1056.256,450.11905,1056.0023 M442.2159,1056.9955L442.29446,1057.0192Q442.6094,1057.1146,442.93393,1057.2157L442.9294,1057.216Q442.82553,1057.4244,442.7612,1057.5604Q442.54782,1057.337,442.21146,1056.9955L442.2159,1056.9955 M437.71042,1055.8346L437.77628,1055.848Q438.04056,1055.9012,438.31686,1055.9615L438.3124,1055.9615L438.92905,1056.5092L439.33914,1056.8846Q439.74887,1057.2648,440.157,1057.662Q439.95114,1057.5424,439.7482,1057.4349Q439.24362,1057.1779,439.14633,1057.1417Q438.7518,1056.965,438.36038,1056.839Q438.23032,1056.6874,437.97348,1056.2985Q437.90195,1056.1859,437.83505,1056.07Q437.76822,1055.9542,437.70602,1055.8346L437.71042,1055.8346 M452.0638,1056.8531L452.09964,1056.9183Q452.24478,1057.1791,452.42093,1057.4401Q452.10428,1057.4874,451.80038,1057.5507Q451.41843,1057.6332,451.3431,1057.6547Q451.19138,1057.6923,451.0405,1057.734Q451.26627,1057.5494,451.49258,1057.3549Q451.88882,1057.0111,452.05917,1056.8531L452.0638,1056.8531 M457.02872,1054.5509L457.43875,1054.5565Q459.074,1054.6017,460.6301,1055.0079Q460.3561,1055.8534,460.23947,1056.6456Q460.17996,1057.0419,460.1575,1057.4249Q460.13498,1057.8077,460.1495,1058.1776L460.17325,1058.5441Q458.834,1058.0214,458.00156,1057.8168Q456.38736,1055.733,455.3511,1054.6427Q456.38626,1054.5414,457.02872,1054.5509 M468.7715,1052.9886L469.26547,1053.2804Q471.25882,1054.4703,473.53073,1056.0282L473.74716,1056.4032Q473.81345,1056.4948,473.96994,1056.9847Q474.07468,1057.38,474.06284,1057.7963Q473.35403,1058.1561,472.16086,1058.9452Q472.04208,1058.7784,471.1179,1057.9755Q470.7289,1057.6559,470.28494,1057.3417Q469.39944,1056.7128,468.28427,1056.1046Q468.46945,1055.34,468.5853,1054.6395Q468.6893,1054.0961,468.7715,1052.9886 M408.0799,1051.8903L408.01245,1052.1229Q407.7495,1053.0573,407.5968,1054.058Q405.20154,1054.9816,403.2201,1056.2614Q402.22833,1056.9012,401.3379,1057.6305Q400.44745,1058.3595,399.6584,1059.1776L398.89465,1060.018Q398.44794,1060.0221,398.177,1060.0323Q399.15546,1058.7008,400.18787,1057.5587L401.23376,1056.4642L402.30664,1055.4645L403.4065,1054.5599L404.53333,1053.7499L405.68713,1053.0353L406.86792,1052.4152L408.0799,1051.8903 M462.4733,1055.6127L462.91068,1055.776Q464.6395,1056.4291,466.03757,1057.0878Q465.56906,1058.5289,465.15567,1059.5826Q464.7952,1060.037,464.60928,1060.181Q464.37106,1060.391,464.09848,1060.5538Q463.12228,1059.9581,462.506,1059.64L462.36752,1059.2416Q462.12418,1058.432,462.14938,1057.5248Q462.16202,1057.0712,462.24185,1056.5934Q462.31924,1056.1151,462.4733,1055.6127 M420.31403,1059.7521L419.9806,1059.954L419.6355,1060.1407L419.27875,1060.3121L418.91028,1060.4684L418.5302,1060.6095L418.13843,1060.7355L417.735,1060.8463L417.3199,1060.942L416.89313,1061.0226Q417.8142,1060.6232,418.0055,1060.5548Q418.38068,1060.4064,418.76178,1060.2675Q419.52185,1059.9901,420.31403,1059.7521 M459.8925,1060.5199L460.0023,1060.567Q460.442,1060.757,460.88858,1060.9745L460.88388,1060.9745L460.93045,1061.0616Q460.6481,1061.0316,460.16116,1060.9396Q460.05734,1060.778,459.88785,1060.5199L459.8925,1060.5199 M415.67474,1054.2457L416.02374,1054.2504Q417.3938,1054.2897,418.34564,1054.6412Q418.3999,1055.4415,418.6964,1056.1742Q418.84357,1056.5406,419.0492,1056.89Q419.11548,1057.0753,419.79736,1057.9008Q418.0893,1058.4127,416.4934,1059.0975Q415.6944,1059.4401,414.92133,1059.8258L414.15466,1060.2223Q413.39453,1060.6298,412.66028,1061.0804Q411.49017,1060.8907,410.83978,1060.422Q410.48938,1060.1847,410.2187,1059.8722L409.9679,1059.5409Q409.73907,1059.1906,409.58154,1058.7653Q409.734,1057.8585,409.94202,1057.0319Q410.0844,1056.3895,410.54456,1055.0902Q411.55066,1054.7845,413.26642,1054.4269Q414.85785,1054.2267,415.67474,1054.2457 M407.39807,1056.2184L407.39423,1056.3378Q407.3255,1057.7936,407.6134,1058.9413Q407.55945,1059.2369,407.56494,1059.3143Q407.55756,1060.0919,407.61517,1061.203Q406.76556,1060.8712,406.61365,1060.8431L405.40723,1060.6183Q404.2179,1060.4115,403.09686,1060.2755Q401.7126,1060.1215,401.44965,1060.1124Q401.99622,1059.5829,402.59338,1059.0963L403.20325,1058.6207Q403.82574,1058.1559,404.49884,1057.734Q405.84308,1056.89,407.39807,1056.2184 M445.76608,1060.7074L445.62387,1060.8873Q445.0616,1061.6061,444.5743,1062.3177Q444.6335,1062.0016,444.72635,1061.6876Q444.77274,1061.5306,444.8276,1061.3741L444.88455,1061.2179Q444.94363,1061.0616,445.01108,1060.9061L445.0065,1060.9061Q445.29703,1060.8436,445.76608,1060.7074 M409.60065,1061.9572L409.60065,1061.9572Q409.69897,1062.0255,409.80164,1062.0897L409.9054,1062.153Q410.0102,1062.2152,410.1194,1062.2733Q410.3377,1062.3895,410.5735,1062.4899L410.5692,1062.4899L410.31213,1062.6818Q409.91718,1062.3844,409.6217,1062.2079Q409.61127,1062.1115,409.5965,1061.9572L409.60065,1061.9572 M467.60074,1058.4747L467.8602,1058.7482Q468.8751,1059.8414,469.51968,1060.9308Q468.57632,1061.6884,468.16116,1062.0958Q467.5466,1062.7194,467.30887,1063.036Q466.30215,1062.0573,465.81973,1061.6915Q466.45236,1061.1244,466.856,1060.4862L466.90976,1060.371L467.15585,1059.7228L467.60074,1058.4747 M462.49698,1063.0236L462.68472,1063.1903Q463.45023,1063.8527,464.44632,1064.432Q463.98422,1064.4723,463.5342,1064.569Q462.96933,1064.7023,462.8572,1064.7457Q462.632,1064.8151,462.40744,1064.8988Q461.87625,1063.8024,461.43393,1063.036Q461.9263,1063.0636,462.49698,1063.0236 M418.86737,1062.528L418.86737,1062.528Q417.49133,1064.3107,416.7044,1065.7767Q416.16827,1065.7057,415.97162,1065.6866Q415.1386,1065.6403,414.68567,1065.6381Q413.3916,1065.6266,412.4319,1065.7069Q412.13147,1064.6493,411.67206,1064.0677Q412.22675,1063.6498,413.13562,1063.0553Q416.34668,1063.3156,418.86737,1062.528 M431.859,1058.1754L432.35437,1058.1893Q435.2075,1058.2892,437.22836,1058.5187Q437.56454,1058.882,437.96146,1059.2067Q438.12637,1059.393,439.2623,1060.0941Q440.16086,1060.6154,441.45267,1061.034Q441.17508,1061.9113,440.83987,1063.4349Q440.4349,1063.9572,439.95438,1064.3556Q438.1661,1065.972,436.03867,1065.9701Q435.59372,1065.9596,435.13373,1065.8656L434.09528,1065.2081L433.2185,1064.5067L432.5033,1063.7606L431.9497,1062.9706L431.55774,1062.1361L431.32733,1061.2572L431.2586,1060.3344L431.3515,1059.3671L431.60156,1058.3556L431.859,1058.1754 M470.63327,1064.3793L470.63547,1064.4249Q470.6733,1065.2094,470.39023,1066.1871Q469.85422,1065.8812,469.73264,1065.8202Q469.32388,1065.2638,469.02457,1064.9132Q469.38016,1064.8295,469.73654,1064.7147Q469.9147,1064.6573,470.09305,1064.5922Q470.17972,1064.5643,470.63327,1064.3793 M423.57855,1060.3344L423.67297,1060.3383Q424.31708,1060.3646,424.99414,1060.3439Q424.86523,1060.9535,424.67816,1061.5194Q424.55426,1061.9559,424.1198,1062.8663Q423.64105,1062.7772,423.2818,1063.0839Q421.8897,1064.4528,420.22577,1066.4813Q419.357,1066.2408,418.72235,1066.1171Q420.7245,1062.8121,423.57855,1060.3344 M442.60764,1064.3969L442.61154,1064.4283Q442.6274,1064.5553,442.6472,1064.6825L442.64267,1064.6827L442.64548,1064.8046Q442.64584,1064.8661,442.65982,1065.1676Q442.66702,1065.3492,442.7037,1065.7633Q442.46902,1066.3014,442.21567,1067.1373L442.21255,1067.1376L442.18704,1066.9764L442.18253,1066.9767Q442.2219,1066.6769,442.2645,1066.3829L442.30795,1066.0905Q442.3522,1065.7994,442.39975,1065.514L442.4481,1065.2306Q442.49728,1064.9481,442.54977,1064.6718L442.60306,1064.3969L442.60764,1064.3969 M465.10098,1066.3365L465.13022,1066.3365Q465.24698,1066.3373,465.36398,1066.3427Q465.13583,1066.8375,464.83072,1067.6923Q464.52103,1067.6927,464.2274,1067.7096Q463.71158,1067.745,463.49747,1067.7782Q463.32254,1067.1268,463.14908,1066.6771L463.3643,1066.6058Q463.57974,1066.5385,463.796,1066.4879Q464.01224,1066.4374,464.22934,1066.4037Q464.66354,1066.3365,465.10098,1066.3365 M454.02945,1059.2665L454.4421,1059.6327Q456.07358,1061.0621,458.99155,1062.6364L459.87186,1064.0941Q460.27512,1064.7919,460.59982,1065.4281L460.7573,1065.7426Q460.13205,1066.1769,459.64914,1066.6295Q458.8456,1067.4279,458.64365,1067.7899L458.56656,1067.2155Q458.46646,1066.6354,458.27408,1066.0333Q458.0817,1065.4315,457.7971,1064.8073Q457.24796,1063.586,456.24918,1062.1698Q456.1431,1062.0394,455.9987,1061.9523Q453.3013,1060.3312,451.9158,1059.5289Q453.17667,1059.264,454.02945,1059.2665 M467.28397,1066.7474L467.348,1066.7716Q467.60403,1066.8698,467.86118,1066.9904L468.38486,1067.2694L468.3801,1067.2694Q468.67758,1067.7101,468.79135,1067.9003Q468.94778,1068.1534,469.0914,1068.4078L468.83133,1068.3278Q468.57217,1068.2501,468.31674,1068.182Q468.06137,1068.1136,467.8096,1068.055Q467.30862,1067.9376,466.81284,1067.8583Q467.08377,1067.1534,467.28397,1066.7474 M414.3365,1067.5563L414.50128,1067.557Q414.8313,1067.5592,415.16522,1067.5707Q415.33215,1067.5763,415.5,1067.5844L415.66815,1067.5927L415.8368,1067.6024Q415.82788,1067.6024,415.8377,1067.6031Q415.68463,1067.955,415.4945,1068.5089Q415.09344,1068.5604,414.93597,1068.567Q414.7198,1068.5814,414.51263,1068.5814L414.25702,1068.5758L414.00836,1068.559L413.76672,1068.5311L413.53204,1068.4918L413.30432,1068.4415L413.08362,1068.38L412.86987,1068.3075L412.6631,1068.2235L412.45905,1068.1285Q412.5183,1067.8185,412.53217,1067.6273Q412.92645,1067.5958,413.32666,1067.5782Q413.62518,1067.5612,414.3365,1067.5563 M461.5284,1067.5592L461.5532,1067.6317Q461.65073,1067.9208,461.7238,1068.1908Q461.387,1068.3033,461.0695,1068.4408Q460.90952,1068.5096,460.75204,1068.5848L460.59518,1068.6615Q460.43887,1068.7396,460.28513,1068.8246Q460.3799,1068.6827,460.49374,1068.5414Q460.60757,1068.4003,460.7404,1068.2594L460.87808,1068.1188Q461.02042,1067.9784,461.18185,1067.8385Q461.3409,1067.6984,461.5284,1067.5592 M478.47482,1058.3468L478.5355,1058.3475Q478.77737,1058.3512,479.0032,1058.3859L479.5593,1059.4305L479.96555,1060.4989L480.2172,1061.5912L480.31412,1062.7072L480.25638,1063.8468L480.04398,1065.0101L479.6769,1066.1974L479.15512,1067.4086L478.47867,1068.6432Q477.32852,1068.6552,474.90457,1069.274Q474.29166,1068.7574,473.83786,1068.4283Q473.91928,1067.8031,473.9659,1067.1674Q474.0109,1066.8561,474.02792,1065.2369Q474.0226,1064.5858,473.98264,1063.924L473.934,1063.2596L473.84793,1062.3761Q474.6749,1061.4564,475.05972,1060.7904Q475.20267,1060.6058,475.61252,1059.7167Q475.7612,1059.3632,475.84933,1059.015Q476.51028,1058.7181,477.10233,1058.5531Q478.11472,1058.3099,478.47482,1058.3468 M471.679,1069.2338L471.69547,1069.2448L471.75296,1069.2836L471.74814,1069.2836L471.7324,1069.3656L471.72775,1069.3658Q471.6954,1069.285,471.6741,1069.2338L471.679,1069.2338 M449.5663,1060.382L449.5663,1060.3822Q451.2267,1061.3307,454.84024,1063.4962Q456.51346,1065.9518,456.6414,1068.0074L456.6401,1068.6818Q456.5956,1069.3446,456.37833,1069.9635Q453.36618,1068.8187,450.90543,1068.6915Q449.14713,1068.6356,448.1022,1068.9164Q447.86075,1068.9647,447.41507,1069.1144Q446.96548,1069.3546,446.50717,1069.6442Q446.0587,1066.9008,445.28433,1064.8522Q445.86526,1063.7172,447.28085,1061.8824Q448.63425,1060.8102,449.5663,1060.382 M397.4049,1062.0052L397.252,1062.2428Q396.66315,1063.1598,396.10583,1064.3165L395.85242,1065.0387L395.6521,1065.7445L395.50488,1066.434L395.41064,1067.1073L395.36945,1067.7645L395.3813,1068.4054L395.44617,1069.0302L395.5641,1069.6385L395.73505,1070.2308Q394.46545,1069.8478,393.47046,1069.7709Q393.53418,1069.3182,393.63477,1068.8585Q393.73535,1068.3988,393.87286,1067.9318Q393.91852,1067.7028,394.3683,1066.515Q394.68628,1065.6852,395.4226,1064.3265Q395.48584,1064.204,395.8559,1063.5785Q396.39648,1062.6761,396.7834,1062.0624L397.4049,1062.0052 M477.01163,1070.7401L476.9802,1070.7784Q476.8541,1070.9315,476.72403,1071.0809Q476.64804,1070.9891,476.52176,1070.8448L476.51688,1070.8451Q476.82053,1070.7762,477.01163,1070.7401 M425.15674,1069.6656L425.3249,1069.755Q425.99512,1070.1222,426.62836,1070.6522Q426.41058,1070.8075,426.12598,1071.0944Q425.98962,1071.1239,425.6208,1071.2299Q425.5857,1070.8556,425.48926,1070.505Q425.44104,1070.3297,425.3775,1070.1603L425.31012,1069.9926Q425.23895,1069.826,425.1524,1069.6656L425.15674,1069.6656 M411.84875,1070.0516L411.92377,1070.0846Q412.22498,1070.215,412.5459,1070.3094Q412.00513,1070.6534,411.22418,1071.2628Q411.38367,1070.9872,411.52393,1070.7174L411.65936,1070.4491Q411.81848,1070.1163,411.84454,1070.0516L411.84875,1070.0516 M394.23993,1062.5397L394.0926,1062.786Q392.89575,1064.8527,392.33856,1066.431Q391.7201,1068.1107,391.49658,1069.7076Q390.15967,1069.767,388.95227,1070.1222Q388.34753,1070.2994,387.7732,1070.5511L387.20642,1070.8209Q386.64722,1071.1093,386.11835,1071.4718Q386.37256,1070.747,386.7163,1070.0187Q387.33252,1068.7704,387.748,1068.1351L388.21124,1067.1554L388.70874,1066.329L389.2793,1065.5739L389.9229,1064.89L390.63947,1064.2775L391.42908,1063.736L392.2917,1063.266L393.2273,1062.8671L394.23993,1062.5397 M417.75684,1069.955L417.75684,1069.955Q417.63165,1070.1583,417.5108,1070.3615L417.39117,1070.5648Q417.27258,1070.768,417.1584,1070.9716Q416.9301,1071.378,416.71948,1071.785Q416.7613,1071.4269,416.82422,1071.069Q416.8557,1070.89,416.89246,1070.7113Q416.9076,1070.622,417.01477,1070.1752L417.01056,1070.1752Q417.29022,1070.1019,417.75684,1069.955 M429.36108,1059.5258L429.29065,1060.6058Q429.3122,1063.7775,432.12933,1066.1315Q433.03888,1066.901,434.377,1067.64Q435.1197,1067.8612,435.83743,1067.89Q438.05197,1068.0487,440.3054,1066.5255Q440.23196,1066.9781,440.26242,1067.0934Q440.39426,1068.0262,440.6736,1069.2616Q439.46762,1069.3724,439.47458,1069.475Q437.0616,1070.8583,436.0477,1071.8185Q434.57318,1070.6327,432.39905,1070.0023Q430.55237,1069.5343,429.98364,1069.5035Q429.28156,1069.536,428.50946,1069.7477Q427.98126,1069.2269,427.4281,1068.8043Q426.0232,1067.8344,425.71216,1067.7582Q424.5329,1067.2081,423.24487,1067.0519L423.89197,1066.4528Q424.51013,1065.8326,425.01288,1065.129Q425.51556,1064.4252,425.90277,1063.6378Q426.67932,1062.0629,426.98517,1060.1537Q427.97827,1060.0153,429.36108,1059.5258 M443.74106,1071.2418L443.74106,1071.2418Q443.9628,1071.2736,444.3038,1071.3422Q444.09427,1071.5321,443.80466,1071.8422Q443.77548,1071.6427,443.75497,1071.4423L443.73654,1071.2418L443.74106,1071.2418 M466.2065,1069.722L466.2065,1069.722Q466.84872,1069.8143,467.1359,1069.8812Q467.51468,1069.9606,467.90463,1070.0658L467.47824,1070.4713L467.2562,1070.6735Q467.03036,1070.8751,466.78952,1071.0763Q466.30972,1071.4781,465.76254,1071.8768Q465.762,1071.7189,465.77567,1071.4689L465.7709,1071.4691Q466.01328,1070.36,466.2065,1069.722 M461.89487,1070.1962L461.87064,1070.3119Q461.81735,1070.5397,461.72482,1070.7367Q461.7078,1070.7906,461.56387,1071.0148Q461.15842,1071.5275,460.68332,1072.0453Q460.26315,1071.7904,460.1611,1071.7394Q460.07455,1071.4877,460.02536,1071.3202L460.02072,1071.3204L460.21542,1071.1659Q460.4117,1071.015,460.6146,1070.8788Q460.8174,1070.7428,461.02676,1070.6215Q461.44308,1070.3793,461.89487,1070.1962 M399.8078,1061.9508L400.45392,1061.975Q403.06976,1062.1017,406.18512,1062.716L407.15826,1063.0963L407.85248,1063.4271Q407.91565,1063.891,408.06586,1064.5568Q406.87915,1065.6019,405.2025,1067.5377Q402.96686,1068.5558,400.96588,1070.118L400.36066,1070.6215Q399.86475,1071.2369,399.23468,1072.0834L398.63574,1071.4474L398.14862,1070.7758L397.77338,1070.0685L397.50995,1069.3258L397.35834,1068.5475L397.3186,1067.7338L397.39062,1066.8844L397.5746,1065.9996L397.8662,1065.0795Q398.90387,1063.0448,399.8078,1061.9508 M478.43375,1072.0404L478.4075,1072.0792Q478.30215,1072.2335,478.1937,1072.3893L478.16025,1072.434Q478.0264,1072.6122,477.8716,1072.788L477.8372,1072.7211L477.83237,1072.7213Q477.96878,1072.5739,478.10178,1072.4232Q478.20255,1072.3112,478.4288,1072.0404L478.43375,1072.0404 M402.7481,1071.1842L402.61676,1071.4325Q402.09882,1072.4254,401.69714,1073.4127Q401.38403,1073.3129,400.87567,1073.0953L401.26147,1072.5853Q401.40668,1072.3937,401.76105,1071.9437L401.75696,1071.944Q402.35052,1071.4618,402.7481,1071.1842 M469.89944,1070.7404L469.95938,1070.7645L470.1702,1070.8514L470.16544,1070.8517Q470.2219,1071.026,470.29843,1071.3016Q469.60104,1071.7155,468.92276,1072.1898Q468.58243,1072.4269,468.24448,1072.6793L467.90714,1072.9354Q467.5704,1073.1954,467.23605,1073.4708Q467.05423,1073.422,466.9335,1073.3981Q467.71262,1072.8214,468.38412,1072.2323Q468.71982,1071.9379,469.02866,1071.6403L469.33078,1071.3419Q469.62375,1071.0426,469.89944,1070.7404 M464.22983,1069.6561L464.18906,1069.8121Q463.88736,1071.0231,463.86673,1071.2338Q463.83566,1071.661,463.8425,1072.0814Q463.837,1072.3988,463.91885,1073.122Q463.2924,1073.5018,462.87027,1073.7421Q462.5383,1073.3925,462.25845,1073.1671Q462.71097,1072.6576,463.00443,1072.2936Q463.18442,1072.0668,463.3231,1071.8126L463.45145,1071.5519L463.5591,1071.2775L463.64615,1070.9894L463.7125,1070.6876L463.7581,1070.3722L463.78305,1070.0431L463.78738,1069.7006L463.78268,1069.7006Q464.04825,1069.6678,464.22983,1069.6561 M409.54303,1068.087L409.6156,1068.1886Q409.90826,1068.5905,410.23834,1068.924Q409.72412,1070.11,409.33258,1070.6832Q408.86932,1071.4249,408.24188,1072.2274Q407.7796,1072.5758,407.31653,1072.8466L406.84912,1073.098Q406.37946,1073.3304,405.90076,1073.485Q405.422,1073.64,404.93414,1073.7172L404.4441,1073.7753Q403.86212,1073.8082,403.62946,1073.787Q404.17743,1072.5009,404.9428,1071.2018Q405.05664,1070.9862,405.75977,1069.8995L406.37915,1069.12Q408.25085,1068.3541,409.54303,1068.087 M450.3143,1070.5927L450.81448,1070.6058Q452.848,1070.7098,455.40353,1071.6478Q454.8267,1072.3278,453.9999,1072.941Q453.71414,1073.1537,453.33768,1073.3954Q452.57248,1073.8129,452.11838,1074.0199Q451.88632,1073.7303,450.10294,1072.1285Q449.24545,1071.3949,448.30746,1070.8448Q448.60684,1070.747,449.3834,1070.6425Q449.83322,1070.5927,450.3143,1070.5927 M472.8937,1072.5441L473.022,1072.649Q473.53214,1073.069,473.9938,1073.4882Q473.49173,1073.8146,473.2701,1073.9418Q472.97556,1074.1161,472.6699,1074.2792Q472.67032,1073.8822,472.6619,1073.713Q472.66104,1073.6564,472.645,1073.3749L472.63742,1073.2623L472.63254,1073.2623Q472.79562,1072.8253,472.8889,1072.5441L472.8937,1072.5441 M470.46262,1073.4679L470.46262,1073.4681Q470.32028,1073.7965,470.16568,1074.1215Q470.0532,1074.3661,469.75998,1074.9281Q469.4188,1074.5802,469.17007,1074.3866Q469.9509,1073.7955,470.46262,1073.4679 M446.57047,1073.4757L446.7764,1073.6603Q447.61057,1074.3939,448.61295,1075.047Q448.31485,1075.0675,448.1389,1075.0656L447.92117,1075.0614Q447.70547,1075.0531,447.4977,1075.0282Q446.87668,1074.953,446.31796,1074.7281Q446.38925,1074.4601,446.446,1074.183Q446.54062,1073.6947,446.56564,1073.4757L446.57047,1073.4757 M454.83853,1074.7057L454.80563,1074.7675Q454.6746,1075.0155,454.5543,1075.2667Q454.35,1075.2489,454.02756,1075.2057Q454.38315,1075.0111,454.37222,1075.0131Q454.55753,1074.8959,454.8339,1074.7057L454.83853,1074.7057 M458.39377,1072.9532L458.46664,1072.9901L458.61014,1073.0626L458.60544,1073.0626Q458.67166,1073.222,458.74185,1073.3763L458.92337,1073.7543Q458.26053,1074.3141,457.57413,1074.7968Q456.99698,1075.1918,456.8771,1075.2604L456.73233,1075.2723Q456.884,1075.0062,457.05008,1074.7443Q457.21616,1074.4818,457.39664,1074.2233L457.58072,1073.9657Q457.95377,1073.4523,458.39377,1072.9532 M435.79178,1074.982L435.83047,1074.9996L435.86148,1075.0138L435.85703,1075.0138Q435.92337,1075.0841,435.98398,1075.1583Q436.0446,1075.232,436.09946,1075.3094Q436.15427,1075.3868,436.2034,1075.4679Q436.25247,1075.5487,436.2958,1075.6332L436.33774,1075.7186Q436.1014,1075.7286,435.88095,1075.7511Q435.4938,1075.7948,435.33548,1075.8275Q435.35275,1075.7802,435.46603,1075.5443Q435.5129,1075.4501,435.56418,1075.3561Q435.6155,1075.2623,435.6713,1075.1688Q435.72708,1075.0753,435.78726,1074.982L435.79178,1074.982 M467.64603,1075.6515L467.65482,1075.6554L467.72586,1075.6866L467.7211,1075.6869Q467.92685,1075.8412,468.0497,1075.9508Q467.48117,1076.0748,467.1064,1076.1403Q467.2842,1075.9738,467.46268,1075.8121L467.64127,1075.6515L467.64603,1075.6515 M441.2103,1071.1456L441.29147,1071.3768Q441.6207,1072.2919,442.02274,1073.0563Q442.0978,1073.4142,442.27988,1073.9716Q441.9365,1074.6041,441.70236,1075.2799Q441.6276,1075.4423,441.40396,1076.318Q441.32333,1076.6722,441.26767,1077.0375Q440.53348,1076.5443,439.84995,1076.2352Q439.29105,1076.0538,438.72763,1075.9381Q438.69266,1075.7545,438.38297,1074.9445Q438.25125,1074.6268,438.09695,1074.3268Q437.79074,1073.7272,437.3856,1073.1989Q437.89865,1072.7545,438.5209,1072.3187Q438.832,1072.1007,439.17032,1071.8851L439.5156,1071.6698L439.87442,1071.4557L440.24692,1071.2426L440.24246,1071.2428Q440.83572,1071.1664,441.2103,1071.1456 M431.13776,1073.2611L431.13776,1073.2611Q432.77448,1073.7169,433.99695,1074.2181Q433.67407,1074.7516,433.4663,1075.3007L433.36798,1075.5765Q433.27625,1075.8531,433.21112,1076.1339Q433.146,1076.4144,433.10742,1076.6993Q432.88562,1076.8346,432.5724,1077.0883Q432.41327,1076.2726,432.11133,1075.4261Q431.96033,1075.0028,431.77362,1074.5717L431.57806,1074.1388L431.36462,1073.7018L431.1333,1073.2611L431.13776,1073.2611 M421.49884,1068.9552L421.9525,1069.1874Q422.38037,1069.4266,422.70465,1069.6952L423.0031,1069.9711Q423.27563,1070.2543,423.44464,1070.5665Q423.61365,1070.8788,423.6792,1071.2203L423.7188,1071.5692L423.64044,1071.8888Q422.6922,1072.2802,421.87335,1072.7894L421.08246,1073.3285L420.352,1073.9266L419.68182,1074.5841L419.07208,1075.3007L418.52277,1076.0763L418.03375,1076.9113L417.60516,1077.8053L417.3797,1077.4635Q417.1983,1076.9554,416.9914,1076.1588Q417.2378,1075.3717,417.55597,1074.5846L417.8922,1073.7972Q418.9568,1071.4357,420.65936,1069.0736Q421.17285,1068.9781,421.49884,1068.9552 M393.37152,1071.6947L394.05542,1071.8002Q396.6925,1072.309,397.755,1074.2045Q396.77844,1075.6378,395.6521,1077.8141L395.19623,1077.173L394.7909,1076.5223L394.43597,1075.8617L394.13165,1075.1915L393.8778,1074.5116L393.6745,1073.8219L393.52167,1073.1227L393.4193,1072.4135L393.37152,1071.6947 M447.67685,1077.4916L447.9153,1077.4945L448.14944,1077.5035L448.37936,1077.5184L448.605,1077.539L448.82632,1077.5656L449.04343,1077.5983L449.25626,1077.6366L449.4648,1077.681L449.66904,1077.7313Q449.43625,1077.7555,449.21036,1077.774L448.9816,1077.7911Q448.7523,1077.8073,448.52066,1077.8177L448.28848,1077.8273Q448.0557,1077.8351,447.82065,1077.8378Q447.59824,1077.8407,447.32297,1077.8375Q447.06247,1077.8344,446.79025,1077.8246L446.55594,1077.5516L446.55136,1077.5516Q446.61765,1077.5431,446.93613,1077.5184Q447.06277,1077.5094,447.1873,1077.5035Q447.4363,1077.4916,447.67685,1077.4916 M481.11057,1071.4232L481.3038,1071.9122L481.4097,1072.4596L481.42825,1073.0651L481.3594,1073.7291L481.20316,1074.4513L480.95956,1075.232L480.62857,1076.0709L480.21024,1076.9681L479.70456,1077.9237Q479.12753,1076.5687,478.51846,1075.7101Q478.5477,1075.1888,478.49887,1074.8561Q479.16513,1074.275,479.6414,1073.6583Q480.41678,1072.5758,481.11057,1071.4232 M439.1049,1078.0111L439.11984,1078.0155L439.13852,1078.0209L439.13412,1078.0211Q439.25613,1078.08,439.3707,1078.1398Q439.48526,1078.1996,439.59238,1078.2599Q439.6506,1078.2897,439.89688,1078.443Q439.99277,1078.5045,440.08115,1078.5665Q439.8611,1078.7762,439.66855,1078.9962Q439.6169,1079.0494,439.38675,1079.3322Q439.2963,1079.4462,439.21048,1079.5629Q439.21548,1079.3346,439.2026,1079.1107Q439.18246,1078.8319,439.173,1078.7775Q439.15982,1078.6674,439.14212,1078.5585L439.1376,1078.5585Q439.12003,1078.2196,439.10043,1078.0111L439.1049,1078.0111 M436.59232,1077.6334L436.5623,1077.8617Q436.42148,1078.7877,435.95163,1079.9154Q435.69034,1079.5023,435.4722,1079.0665Q435.36313,1078.8485,435.26492,1078.6251L435.16937,1078.4Q435.07654,1078.1735,434.9945,1077.9413L434.98578,1077.9413Q435.14935,1077.8776,435.31943,1077.8268Q435.4894,1077.776,435.6658,1077.7386L435.84378,1077.7045Q436.20078,1077.6425,436.59232,1077.6334 M398.30597,1076.962L398.24335,1077.3417Q397.9879,1078.8397,397.65594,1079.9908Q397.4027,1079.7604,397.0266,1079.3922Q397.726,1077.924,398.30597,1076.962 M422.846,1074.4772L422.846,1074.4774Q422.31525,1075.8759,421.5921,1077.1595L421.2185,1077.7941Q420.83295,1078.4215,420.3993,1079.0204Q419.96558,1079.6188,419.48383,1080.1888Q419.39514,1080.1068,418.98242,1079.6437L419.25067,1078.9083L419.55908,1078.2135L419.9076,1077.5587L420.29626,1076.9445L420.7251,1076.3705L421.19403,1075.8368L421.70312,1075.3434L422.25238,1074.89L422.846,1074.4772 M476.45908,1076.3014L476.4343,1076.3876Q476.35672,1076.6456,476.23782,1076.9003L476.11642,1077.14L475.90787,1077.5104Q475.72208,1078.0741,475.55435,1078.4408Q475.3691,1078.8546,475.13193,1079.2589Q474.89474,1079.663,474.60556,1080.058L474.30344,1080.4503Q473.98825,1080.8405,473.6212,1081.2213Q473.02652,1081.086,472.01218,1080.5807Q472.0316,1079.9594,471.97726,1079.3241Q471.97055,1079.0687,471.86905,1078.7921Q472.04037,1078.2789,472.02145,1078.3065Q473.17697,1077.8927,474.18094,1077.4508Q474.6829,1077.2296,475.14706,1077.0016Q475.4003,1076.892,476.45908,1076.3014 M477.69022,1078.2655L477.77164,1078.455Q478.0873,1079.2123,478.24167,1079.9674Q478.0151,1080.181,477.79092,1080.3624L477.5624,1080.536Q477.33206,1080.7018,477.09427,1080.8356Q476.61868,1081.1036,476.11343,1081.245Q476.57657,1080.6215,476.93387,1079.973Q477.11252,1079.6488,477.26474,1079.3182Q477.41696,1078.9879,477.54276,1078.6512L477.66183,1078.3131L477.657,1078.3131L477.6854,1078.2655L477.69022,1078.2655 M428.03406,1072.7997L428.09564,1072.7999L428.60272,1072.819L428.5984,1072.819Q428.75958,1073.0399,429.00684,1073.4147L429.41797,1074.128Q429.80286,1074.8346,430.08057,1075.5135L430.33148,1076.1857L430.5288,1076.8441L430.67267,1077.4886L430.76282,1078.1195L430.79944,1078.7367L430.78253,1079.34Q430.2796,1080.1874,429.75323,1081.9723Q429.15253,1081.5548,428.6731,1081.1359Q428.19366,1080.7172,427.8354,1080.2968L427.5074,1079.8763L427.24,1079.455L427.0332,1079.0331L426.88702,1078.6105L426.8014,1078.1871L426.67236,1077.3602L426.5946,1076.6263L426.56128,1075.9408L426.57227,1075.3031L426.6277,1074.7137L426.72748,1074.1725L426.87164,1073.6793L427.06018,1073.2345L427.29315,1072.8378L427.28876,1072.8378Q427.72815,1072.7955,428.03406,1072.7997 M440.5002,1081.5541L440.45468,1081.6129Q440.26962,1081.848,440.03867,1082.0919L440.03494,1082.0922L440.07748,1081.9884Q440.12082,1081.8854,440.1677,1081.784L440.16324,1081.7843Q440.29263,1081.6964,440.4957,1081.5541L440.5002,1081.5541 M400.09027,1074.8517L400.19818,1074.9Q400.62958,1075.09,401.05646,1075.2377L400.83826,1076.0123L400.66046,1076.785L400.5188,1077.556L400.4134,1078.3253L400.34424,1079.0929L400.31122,1079.8588L400.3145,1080.6229L400.35394,1081.3851L400.42963,1082.1459Q399.94,1081.8214,399.23138,1081.298Q399.5395,1080.4171,399.78986,1079.3595Q399.91498,1078.8307,400.0257,1078.2577L400.1328,1077.6737Q400.23633,1077.0785,400.32544,1076.4393Q400.33917,1076.3405,400.33234,1076.2408Q400.30945,1076.0226,400.28943,1075.8878Q400.2812,1075.8077,400.21484,1075.432Q400.15887,1075.1342,400.08618,1074.8517L400.09027,1074.8517 M461.0444,1076.4017L461.0444,1076.402Q461.192,1076.5201,461.43698,1076.6891L460.98483,1077.4701L460.50912,1078.2142L460.00522,1078.9213Q458.45126,1080.9872,456.38913,1082.3893L456.41666,1082.0199Q456.42587,1081.652,456.36172,1081.2909Q456.29758,1080.9296,456.1602,1080.5751Q455.88766,1079.8656,455.3126,1079.183Q455.3525,1078.9535,455.40134,1078.7262L455.53262,1078.1617Q456.78647,1077.5905,457.53085,1077.1227Q458.80753,1077.0065,461.0444,1076.4017 M416.2984,1079.3007L416.35968,1079.3885Q416.6051,1079.7384,416.85706,1080.0687L416.85278,1080.0687L416.77985,1080.3778L416.71204,1080.6918Q416.64667,1081.0084,416.5915,1081.3348L416.53882,1081.6637Q416.48865,1081.9952,416.44867,1082.3365Q416.4157,1082.5956,416.36456,1083.1937L416.2339,1083.2928L416.19495,1082.8492L416.16742,1082.4059L416.1513,1081.9623L416.14655,1081.5187L416.15326,1081.0751L416.1714,1080.6315L416.20087,1080.1879L416.24182,1079.7443L416.2942,1079.3007L416.2984,1079.3007 M433.3656,1079.0634L433.4903,1079.3622Q434.00433,1080.5482,434.76422,1081.5927Q434.1137,1082.392,433.7049,1082.8698Q432.65955,1083.1864,431.99786,1083.3114L431.57477,1083.088L431.76215,1082.7565Q431.9414,1082.423,432.08813,1082.0824Q432.23486,1081.7418,432.349,1081.3942Q432.4632,1081.0463,432.54486,1080.6915L432.61835,1080.3351L432.6756,1079.975L432.67114,1079.975Q433.06384,1079.3627,433.3656,1079.0634 M396.22028,1081.3346L396.29565,1081.4027Q396.59857,1081.6759,396.92004,1081.945L396.91602,1081.9452L396.779,1082.2013L396.63776,1082.4388L396.49237,1082.6573Q396.3449,1082.8663,396.1891,1083.0375Q395.87744,1083.3798,395.53217,1083.5709Q395.59167,1083.3263,395.6585,1083.0797Q395.83203,1082.462,395.87555,1082.3365Q395.95337,1082.0875,396.03857,1081.8373Q396.12372,1081.5868,396.2162,1081.3346L396.22028,1081.3346 M424.63336,1075.1967L424.6256,1075.525Q424.6139,1076.857,424.90332,1078.4806L425.02655,1079.0807Q425.18842,1079.6771,425.5047,1080.2587Q426.4536,1082.0038,428.79236,1083.6171Q428.58594,1083.6432,427.65808,1083.5809Q426.96918,1083.6151,426.22174,1083.5692L425.50415,1083.4911Q424.79425,1083.3871,424.11487,1083.1791Q423.43542,1082.9708,422.78656,1082.6588L422.14532,1082.3207Q421.5138,1081.9564,420.90424,1081.4884Q421.97235,1080.2352,422.82684,1078.8531Q423.25403,1078.1622,423.62787,1077.4391L423.98828,1076.7076Q424.33325,1075.9681,424.63336,1075.1967 M407.7959,1074.7858L407.2093,1075.6058Q406.06842,1077.2843,405.1864,1079.2743Q404.74536,1080.2694,404.36902,1081.3422Q404.0515,1082.1986,403.56348,1083.9984L402.63116,1083.4948Q402.4317,1082.6412,402.33594,1081.7814L402.26617,1080.9198Q402.13452,1078.3307,402.93665,1075.6852Q403.84045,1075.8378,405.2674,1075.6439Q406.5501,1075.4293,407.7959,1074.7858 M464.61386,1080.9904L464.63974,1080.9906Q464.83377,1080.9908,465.09427,1081.0123Q464.24142,1081.8195,463.65146,1082.3175L463.1171,1082.8258Q462.8726,1083.0502,462.62027,1083.2633Q462.25058,1083.5953,461.30936,1084.2611Q461.4836,1083.6686,461.66898,1083.1481Q461.76163,1082.8878,461.85715,1082.6456Q461.9031,1082.5133,462.14975,1081.9594L462.14505,1081.9594L462.36703,1081.756Q462.5955,1081.5646,462.8502,1081.421Q463.10483,1081.2775,463.38565,1081.1818Q463.94736,1080.9904,464.61386,1080.9904 M391.37097,1071.6398L391.4234,1072.6176Q391.794,1076.4945,394.73553,1079.8317Q393.89886,1081.7189,393.35938,1084.5375Q391.30865,1083.3619,388.66895,1084.0406Q385.4538,1079.9398,385.39807,1075.703L385.4295,1074.642Q385.97986,1074.0292,386.57892,1073.5404L387.19,1073.0826Q389.05786,1071.8029,391.37097,1071.6398 M453.24472,1082.2701L453.2571,1082.4393Q453.33694,1083.391,453.45554,1083.9481Q452.69095,1084.2433,452.35104,1084.3468Q451.90085,1084.493,451.43436,1084.618L451.6323,1084.3925Q451.82858,1084.1652,452.0186,1083.9313Q452.20865,1083.6974,452.3923,1083.4569Q452.57602,1083.2164,452.75345,1082.9691L453.24002,1082.2701L453.24472,1082.2701 M435.08862,1084.432L435.08862,1084.4323Q434.99432,1084.5526,434.93213,1084.6302L434.77234,1084.5773L434.76788,1084.5773L434.8073,1084.5321Q434.8051,1084.5323,434.80292,1084.5323Q434.97485,1084.472,435.08417,1084.432L435.08862,1084.432 M478.31967,1082.3998L478.26913,1082.7094Q478.03946,1083.9476,477.37143,1085.1803Q476.5566,1084.4769,476.14273,1084.1805Q475.6135,1083.7833,475.0239,1083.3907Q475.8536,1083.3907,476.56345,1083.195Q476.92776,1083.097,477.28085,1082.9503L477.63107,1082.7911L477.97574,1082.6075L478.31967,1082.3998 M444.54678,1078.121L444.65915,1078.2655Q445.09103,1078.8207,445.68033,1079.4586Q445.9128,1079.6776,446.22958,1079.7181Q449.1935,1079.9313,452.3914,1079.2189Q452.39615,1079.5809,452.08224,1080.4093Q451.767,1081.0963,451.19113,1081.8524Q449.82895,1083.7472,448.04288,1085.214L447.21097,1084.7386Q446.4147,1084.2465,445.76065,1083.6874Q444.45255,1082.5687,443.7136,1081.1815L443.37967,1080.4711L443.11234,1079.7274L443.09006,1079.5114Q444.03464,1078.7113,444.54678,1078.121 M469.5175,1083.2733L469.45255,1083.4349Q469.18594,1084.0809,468.80875,1084.7108Q468.16238,1085.0526,467.72678,1085.265Q468.13992,1084.872,468.5386,1084.4347Q468.738,1084.2162,468.9337,1083.9865L469.1285,1083.7543Q469.32242,1083.5192,469.51273,1083.2733L469.5175,1083.2733 M472.9526,1084.3507L473.11893,1084.4523Q473.7795,1084.8585,474.36325,1085.267Q474.10135,1085.2401,473.8331,1085.2174Q473.15677,1085.1644,473.01382,1085.1588Q472.4606,1085.1261,471.87222,1085.1105Q472.12247,1084.9442,472.36276,1084.7758Q472.54575,1084.65,472.94778,1084.3507L472.9526,1084.3507 M442.21744,1082.4501L442.4346,1082.8041Q443.33444,1084.2032,444.7322,1085.3392Q444.27487,1085.3312,443.52353,1085.2892Q442.84042,1085.0514,442.20822,1084.7865Q441.72208,1084.5956,440.70303,1084.0829Q441.12387,1083.7081,441.46884,1083.3439Q441.74667,1083.0677,442.21744,1082.4501 M414.84882,1071.1771L414.78168,1071.7167Q414.55524,1073.8756,415.00293,1076.0577Q414.72174,1077.0109,414.5453,1077.9652Q414.3667,1078.9196,414.28436,1079.8759L414.22614,1080.8324Q414.1577,1082.7462,414.47437,1084.6666Q413.60205,1085.1566,413.3745,1085.1979Q412.974,1085.3395,412.52643,1085.4337Q411.63123,1085.6224,410.5478,1085.6224Q408.91473,1085.7047,405.3462,1084.8387Q405.28607,1084.8041,406.1371,1082.1083L406.8476,1080.2806L407.66608,1078.5848L408.59247,1077.0206L409.62695,1075.5885L410.76935,1074.288L412.01978,1073.1193L413.37817,1072.0824L414.84882,1071.1771 M431.41943,1085.3651L431.37335,1085.4115Q431.18903,1085.5973,431.0044,1085.7787Q431.01965,1085.6354,431.04614,1085.4154L431.0417,1085.4156Q431.1848,1085.3978,431.41943,1085.3651 M459.50882,1082.3812L459.37466,1082.6974Q458.85587,1083.9908,458.62924,1085.7455Q458.00412,1086.0116,457.5961,1086.1576Q457.2147,1085.9496,456.87845,1085.6681Q456.71036,1085.5275,456.55362,1085.3683Q456.4705,1085.3002,456.1041,1084.8495Q456.93094,1084.3964,457.69443,1083.8585Q458.0762,1083.5895,458.4421,1083.2994L458.80405,1083.004Q459.1597,1082.7032,459.50882,1082.3812 M439.69577,1085.7225L439.69577,1085.7228Q439.82053,1085.789,439.94748,1085.8541Q440.07437,1085.9193,440.20346,1085.9833L440.33304,1086.047Q440.59335,1086.1735,440.86215,1086.2953Q440.45023,1086.202,439.78055,1086.039Q439.74417,1085.9174,439.69125,1085.7225L439.69577,1085.7225 M467.3049,1081.515L467.40024,1081.5482Q467.78275,1081.6832,468.18637,1081.851L467.5046,1082.7015L466.80508,1083.473L466.08286,1084.1654L465.33804,1084.7787L464.5706,1085.3129L463.7805,1085.7677L462.9678,1086.1437L462.13248,1086.4406L461.2745,1086.6583L461.0477,1086.6876Q462.454,1085.8954,463.6984,1084.8661L464.10867,1084.5165L466.01114,1082.7855Q466.42258,1082.4125,467.3049,1081.515 M452.96255,1086.1942L452.9222,1086.2826Q452.76102,1086.6334,452.60306,1086.9503Q452.34872,1086.8834,452.09842,1086.8085Q451.97324,1086.7709,451.84903,1086.7316L451.4741,1086.6088Q451.81216,1086.5277,452.14285,1086.4369Q452.3082,1086.3915,452.47165,1086.3434L452.96255,1086.1942 M454.92728,1086.4899L454.92728,1086.4899Q455.04965,1086.6354,455.25412,1086.8436Q454.9213,1086.9164,454.71262,1086.9576Q454.84073,1086.6774,454.92258,1086.4899L454.92728,1086.4899 M433.38757,1086.0983L433.4303,1086.1168L433.5807,1086.1823L433.57623,1086.1825Q433.2412,1086.536,433.01184,1086.7665L432.44684,1087.0536Q432.65533,1086.8473,432.8634,1086.6356Q433.0196,1086.4784,433.38318,1086.0983L433.38757,1086.0983 M419.58704,1082.909L420.31348,1083.4518L421.0603,1083.9313L421.8275,1084.3475L422.61517,1084.7006L423.42322,1084.9901L424.25165,1085.2164L425.10052,1085.3798L425.96973,1085.4794L426.85944,1085.516Q426.364,1085.9266,425.85175,1086.2955L425.33093,1086.6539Q424.8037,1087.0018,424.25085,1087.3085Q423.14526,1087.9213,421.93744,1088.3683Q421.18835,1087.9764,420.5923,1087.5477Q418.80408,1086.2618,418.3921,1084.6439L418.28876,1084.0956Q418.81824,1083.6512,419.58704,1082.909 M383.6238,1077.8143L383.7841,1078.5951Q384.52155,1081.715,386.79883,1084.7609Q385.72302,1085.2836,384.71405,1086.0436Q383.88126,1087.091,383.25217,1088.599L382.8538,1087.5922L382.56522,1086.5375L382.3865,1085.4349L382.31754,1084.2845L382.35837,1083.086L382.50906,1081.84L382.7695,1080.5458L383.1398,1079.204L383.6238,1077.8143 M440.68246,1088.2225L440.84238,1088.2579Q441.48123,1088.3988,442.10757,1088.5209L442.103,1088.5209Q441.93448,1088.5829,441.53177,1088.7179Q441.30093,1088.7941,441.06625,1088.8668Q440.90836,1088.6237,440.84525,1088.5145L440.71902,1088.2963L440.678,1088.2225L440.68246,1088.2225 M465.87424,1088.0392L465.70187,1088.15Q465.01334,1088.5907,464.3395,1088.9957L464.46414,1088.8859Q464.592,1088.7775,464.73294,1088.6735Q464.87387,1088.5697,465.02798,1088.4703Q465.18204,1088.3712,465.34915,1088.2767Q465.51633,1088.1823,465.69656,1088.0922L465.69186,1088.0924L465.87424,1088.0392 M416.59485,1085.4235L416.7542,1085.88L416.95282,1086.3243L417.1906,1086.7565L417.46765,1087.1761L417.78387,1087.5839L418.13934,1087.9789L418.53406,1088.3619L418.96796,1088.7328L419.4411,1089.0912L419.20038,1089.1405Q418.88544,1088.9865,418.60248,1088.796Q418.03662,1088.4149,417.599,1087.8881L417.38824,1087.6154L417.19348,1087.3243L417.0105,1087.0153Q416.82056,1086.3998,416.75458,1086.1359L416.57776,1085.4325L416.59485,1085.4235 M429.03967,1086.1395L429.0254,1086.3041Q428.96954,1086.964,428.93665,1087.6649Q427.8506,1088.5577,427.1621,1089.0428Q425.67657,1089.4393,424.84692,1089.5675L424.38177,1089.411Q425.51923,1088.8524,426.56476,1088.1442Q427.08752,1087.7899,427.58734,1087.3983L428.08148,1086.9974Q428.5677,1086.5873,429.03967,1086.1395 M414.89886,1086.632L414.92957,1086.7462Q415.26825,1087.9908,415.36816,1088.0074Q415.80627,1088.805,416.3794,1089.4308Q414.49957,1089.5592,413.80078,1089.5758Q412.83057,1089.6117,411.9555,1089.6117Q411.19385,1089.6117,410.50427,1089.5846L409.83282,1089.5507Q407.8745,1089.4286,406.5572,1089.0629Q405.73145,1088.1481,405.42914,1087.09L405.36584,1086.8234Q408.54663,1087.6132,411.09656,1087.5219Q413.30023,1087.433,414.89886,1086.632 M461.9111,1088.9991L461.9111,1088.9994Q461.77988,1089.2489,461.75912,1089.3014Q461.71194,1089.4039,461.66934,1089.5084Q461.58414,1089.7174,461.51736,1089.9352L461.51443,1089.9354L461.43283,1090.1517Q461.24484,1089.9647,461.08835,1089.753Q461.0101,1089.6471,460.93973,1089.5353Q460.86935,1089.4232,460.80692,1089.305L460.74643,1089.1854L460.74173,1089.1854Q461.1865,1089.1256,461.9111,1088.9991 M436.38943,1087.0995L436.60385,1087.1627Q437.46024,1087.4149,438.2966,1087.6376Q438.55484,1088.3771,439.119,1089.3893Q438.40543,1089.5507,437.67044,1089.6815L436.92557,1089.8048Q436.1732,1089.9203,435.3904,1090.005Q433.82483,1090.1747,432.13776,1090.222Q433.43787,1089.0563,434.12445,1088.3483Q435.08282,1087.8512,436.38943,1087.0995 M480.25095,1088.9296L480.28604,1088.951L480.756,1089.2557L480.83676,1089.3463L480.8926,1089.4552L480.9235,1089.5826L480.92947,1089.7286L480.9105,1089.8932L480.86667,1090.076L480.79782,1090.2777L480.70407,1090.4977L480.70102,1090.4979Q480.64517,1090.1459,480.5491,1089.797Q480.50107,1089.6227,480.4429,1089.4489Q480.38486,1089.2753,480.31668,1089.1022L480.24606,1088.9296L480.25095,1088.9296 M388.0652,1086.3148L388.11566,1086.372Q388.14105,1086.506,388.9959,1086.9872Q389.64984,1087.3324,390.32996,1087.4801Q391.7699,1087.7643,393.1131,1087.2985Q393.11774,1088.5355,393.22174,1089.3033Q392.68805,1089.6654,391.92682,1090.0294Q390.9212,1090.485,390.6494,1090.577Q390.17944,1090.7601,389.6505,1090.9437Q388.88605,1091.1234,388.5766,1091.1469Q388.15662,1091.1969,387.74927,1091.1969Q387.56384,1091.2211,386.69568,1091.1097Q385.6662,1090.9352,384.7177,1090.4122Q384.87347,1089.7103,385.16248,1089.0372Q385.307,1088.7008,385.4848,1088.3717Q385.55487,1088.2025,386.08923,1087.4005Q387.33087,1086.5878,388.0652,1086.3148 M470.80576,1087.0153L471.4086,1087.0199Q473.79007,1087.0553,475.69363,1087.3756L474.94174,1088.1029L474.15842,1088.7626L473.33884,1089.3551L472.48294,1089.8805L471.59073,1090.3385L470.66226,1090.7294L469.69748,1091.0529L468.69638,1091.3094L467.65897,1091.4984Q466.65805,1091.578,466.10233,1091.5702Q465.19064,1091.5887,464.03464,1091.3937Q465.83597,1090.3746,467.2272,1089.4396Q468.83224,1088.0038,469.53848,1087.0336Q470.04642,1087.0175,470.80576,1087.0153 M445.65988,1089.0775L445.65988,1089.0778Q448.6315,1089.4122,451.0565,1089.308Q449.6461,1090.5985,448.88443,1091.1676Q448.4183,1091.5262,447.94394,1091.8531Q447.71194,1092.0365,446.50204,1092.7616Q446.2311,1092.6559,445.9658,1092.5365Q445.76523,1092.4506,445.31143,1092.2162Q444.80466,1092.0079,444.5175,1091.868Q444.1807,1091.7054,443.8649,1091.5206Q443.5491,1091.3358,443.25443,1091.1285Q443.09616,1091.0387,442.413,1090.4559Q443.1763,1090.1947,443.90152,1089.8934Q444.45395,1089.6786,445.65988,1089.0775 M418.90936,1091.1383L419.24756,1091.2587Q420.60443,1091.7118,422.39087,1091.712Q420.987,1092.2772,419.57208,1092.5912L418.86395,1092.7323L418.15448,1092.8422L417.4436,1092.9208L416.73132,1092.9679L416.0177,1092.9838Q415.5135,1092.9891,414.7085,1092.9315Q412.89844,1092.4979,411.43488,1091.9698Q410.24896,1091.5204,410.05798,1091.4181Q411.92462,1091.5306,413.78363,1091.4747Q414.4494,1091.4572,415.15283,1091.4222L415.86566,1091.3829Q417.30798,1091.2955,418.90936,1091.1383 M453.5754,1089.1295L453.9645,1089.1947Q456.42172,1089.5555,458.6885,1089.3939Q458.93338,1090.8029,459.37314,1091.5829Q458.3444,1092.025,457.36545,1092.3688L456.39432,1092.6879L455.44333,1092.9581Q454.50253,1093.2037,453.60214,1093.351L452.71188,1093.4738L451.84183,1093.5475L450.99203,1093.5721Q450.20804,1093.5868,449.0389,1093.4318Q450.7004,1092.2782,452.32162,1090.7506Q452.76334,1090.2938,452.85318,1090.1605Q453.20712,1089.715,453.5754,1089.1295 M440.32443,1091.079L440.6841,1091.4681Q442.1617,1092.9838,444.26352,1093.8585Q442.86295,1094.3981,442.246,1094.545Q441.42807,1094.7706,440.5897,1094.9176Q439.88107,1094.9774,439.231,1094.9838L438.05014,1094.9496L437.09726,1094.8441L436.21,1094.6686L435.38846,1094.4227L434.63263,1094.1068L433.94244,1093.7206L433.318,1093.264L432.75916,1092.7372L432.26166,1092.1405Q434.222,1092.0831,436.03165,1091.8673Q436.93643,1091.7592,437.80356,1091.6115L438.66122,1091.4537Q439.50717,1091.2863,440.32443,1091.079 M477.54703,1088.1989L477.95193,1088.7938Q479.41458,1091.1771,478.36478,1093.6241Q477.55875,1094.1478,476.80344,1094.555L476.05576,1094.9332Q475.31833,1095.2821,474.62155,1095.5146Q473.9249,1095.7473,473.26907,1095.8638L472.62338,1095.9509Q471.98587,1096.009,471.39713,1095.9514L470.2408,1095.7322Q466.04324,1094.8441,463.66208,1093.3019Q465.73697,1093.6278,467.86288,1093.4081L469.17563,1093.1708L470.38748,1092.8531L471.55197,1092.4489L472.66898,1091.9574L473.73843,1091.3795L474.7606,1090.7145L475.7352,1089.9628Q476.68375,1089.1676,477.54703,1088.1989 M398.43542,1083.1178L398.69824,1083.3046Q399.75928,1084.0487,400.97394,1084.7606Q401.50952,1086.5851,402.42578,1088.3768Q402.9613,1089.205,403.16693,1089.3248Q403.2699,1089.4923,404.27734,1090.1012Q404.70905,1090.3314,405.22284,1090.5236Q406.40643,1091.7518,408.34094,1092.736L409.35364,1093.2128Q410.41266,1093.6744,411.6574,1094.0753Q412.87292,1094.4701,414.39087,1094.828Q416.6801,1095.0607,419.28955,1094.6124Q405.6316,1098.5947,398.4698,1094.9645Q398.36646,1093.8881,397.86334,1093.0333Q397.12555,1091.785,395.56958,1091.2404Q395.43158,1090.7672,395.27783,1090.0087Q396.42303,1088.6771,396.31952,1087.7103Q396.5056,1087.4393,395.33472,1086.1527L397.01093,1084.8815L397.4499,1084.4786Q397.78198,1084.1918,398.43542,1083.1178 M463.38058,1095.3982L464.05093,1095.7415Q466.7903,1097.074,471.05948,1097.8464Q471.91605,1097.9612,473.08328,1097.8318Q474.189,1097.6948,475.3793,1097.2844Q474.79166,1097.7026,474.19925,1098.0281Q473.60684,1098.3535,473.0096,1098.5857L472.4111,1098.7949L471.8102,1098.9575L471.20694,1099.0737L470.60123,1099.1433Q469.87936,1099.1829,469.61234,1099.1575Q469.2311,1099.1394,468.848,1099.0852Q468.08182,1098.9766,467.30814,1098.7231Q466.92368,1098.5964,466.52774,1098.4336L466.04123,1098.1316Q464.16086,1096.9065,463.38058,1095.3982 M384.5481,1092.4708L384.8573,1092.5975Q386.10065,1093.0768,387.4494,1093.12Q387.2381,1093.9374,387.57007,1094.798Q387.76428,1095.2885,388.4461,1095.3655Q388.88153,1095.3845,389.23767,1094.9493Q389.37897,1094.7423,389.40308,1094.4901Q389.4167,1094.2433,389.33142,1093.9752Q389.31824,1093.8427,389.36847,1093.724Q389.54956,1093.4393,389.6618,1093.399Q389.80707,1093.3009,390.01575,1093.2167Q390.47784,1092.9933,391.9193,1092.8187Q393.0442,1092.6556,394.07074,1092.8446Q394.48163,1093.9921,395.02478,1094.9579Q395.4702,1095.4036,396.55658,1096.0879Q396.3026,1098.2959,393.721,1099.5696Q391.43677,1100.6814,388.90778,1099.6887Q388.3589,1099.4536,387.82733,1099.1011L387.30017,1098.7192Q386.7793,1098.3079,386.26788,1097.7788Q385.4381,1096.228,385.36084,1095.937Q385.1139,1095.3352,384.94086,1094.7496Q384.59283,1093.578,384.5481,1092.4708 M421.04266,1040.8608L420.9726,1040.8633Q416.79718,1042.0835,414.15186,1043.895Q409.7254,1047.3286,409.02472,1049.5161Q407.32452,1050.0027,405.72632,1050.8031Q404.86768,1051.007,401.13647,1053.9122Q398.2171,1056.4564,395.67255,1060.2574Q389.3203,1061.2164,386.6469,1066.0062Q383.94394,1070.5126,383.5405,1073.9012Q382.74527,1074.5297,381.7889,1077.226Q381.1235,1078.3785,380.42374,1083.107Q380.49033,1087.5345,381.02914,1088.213Q381.51175,1089.7274,382.62277,1091.3033Q382.53424,1095.5947,384.73706,1098.946Q387.8526,1102.4866,392.22217,1102.0154Q394.7207,1101.6003,396.59973,1099.9714Q398.32422,1098.1367,398.3686,1097.0417Q404.51135,1099.405,411.43542,1098.2966Q416.62796,1097.4629,420.8185,1096.156Q422.9138,1095.5024,424.7586,1094.7306L429.97888,1092.1537Q431.01093,1094.268,432.90353,1095.4421Q436.5045,1097.1743,438.96042,1096.9099Q442.91983,1096.8472,446.6708,1094.8578Q449.6492,1095.8779,453.95346,1095.2384Q457.0223,1094.7262,460.48343,1093.1898Q462.32663,1100.5938,470.0339,1101.1074Q474.69962,1100.751,477.50217,1098.0676Q483.2711,1090.9108,482.77713,1090.4384Q483.94638,1087.9703,478.98502,1086.236Q480.75772,1082.7201,480.33853,1080.5065Q482.5693,1077.421,483.28214,1073.6862Q483.76102,1071.8007,482.10495,1069.5914Q484.449,1063.8947,483.70218,1062.0607Q482.86612,1058.8624,482.20853,1058.393L477.2786,1053.621Q475.126,1051.9086,473.5264,1051.1019Q469.80276,1049.2793,468.08273,1049.3623Q467.43613,1047.9688,465.3893,1047.1348L452.82584,1043.0237Q450.50443,1042.383,447.9029,1042.45Q446.19733,1042.4834,444.28857,1042.7844Q441.3369,1042.5125,437.48566,1042.7798Q432.48517,1043.169,430.9837,1043.5918Q426.21014,1041.5417,421.04266,1040.8608"/>
</g>
<g style="fill:rgb(0,0,0); fill-opacity:1.0; stroke-linejoin: miter">
<path d="M444.9232,1069.0302L444.9232,1069.0302L444.9232,1069.0314L444.60745,1068.3195C476.51926,1097.2141,508.49164,1126.1643,527.7994,1147.171L527.7994,1147.171C547.1274,1168.1998,553.9545,1181.4662,553.31226,1198.8071L553.31226,1198.8071C553.0875,1204.8743,551.9489,1211.4194,550.8732,1217.6125L550.8732,1217.6125C549.8789,1223.3369,548.9419,1228.7424,548.7726,1233.3146L548.7726,1233.3146C548.603,1237.8922,549.21954,1241.3656,551.0486,1243.4843L551.0486,1243.4843C553.1062,1245.868,556.9669,1246.8319,562.12317,1246.8319L562.12317,1246.8319C568.29987,1246.8317,575.86206,1245.4579,583.2232,1244.1178L583.2232,1244.1178C586.4717,1243.5262,589.7119,1242.9364,592.7051,1242.4926L592.7051,1242.4926C598.6085,1241.6171,603.697,1241.2821,608.2751,1241.2821L608.2751,1241.2821C615.6091,1241.2821,621.62805,1242.1412,627.5861,1242.9906C628.11115,1243.0653,628.4761,1243.5516,628.4012,1244.0765C628.32635,1244.6017,627.8401,1244.9664,627.3151,1244.8917L627.3151,1244.8917C621.352,1244.0416,615.45905,1243.2023,608.2751,1243.2023L608.2751,1243.2023C603.7928,1243.2023,598.80096,1243.5299,592.9869,1244.3922L592.9869,1244.3922C590.0191,1244.8324,586.8343,1245.4122,583.56714,1246.0072L583.56714,1246.0072C576.26105,1247.3373,568.5089,1248.7521,562.12317,1248.7521L562.12317,1248.7521C556.8925,1248.7521,552.2453,1247.8094,549.5949,1244.7391L549.5949,1244.7391C547.25604,1242.0299,546.6813,1237.8959,546.8536,1233.2433L546.8536,1233.2433C547.0287,1228.5149,547.9938,1222.9685,548.98126,1217.2839L548.98126,1217.2839C550.06195,1211.062,551.17426,1204.6492,551.39325,1198.7358L551.39325,1198.7358C552.00714,1182.1622,545.60223,1169.3783,526.3855,1148.4706L526.3855,1148.4706C507.15192,1127.5444,475.2604,1098.665,443.31857,1069.743C443.11752,1069.5612,443.00284,1069.3024,443.00284,1069.0314L443.00284,1069.0314L443.00284,1069.0302C443.00284,1068.4999,443.43277,1068.0702,443.96304,1068.0702C444.49332,1068.0702,444.9232,1068.4999,444.9232,1069.0302 Z"/>
</g>
<g style="fill:rgb(0,0,0); fill-opacity:1.0; stroke-linejoin: miter">
<path d="M639.5268,1245.688L639.5268,1245.688C639.5268,1246.2124,639.20514,1246.5596,638.9878,1246.7366L638.98773,1246.7368C637.1722,1248.2161,626.572,1249.0847,614.5746,1249.0847L614.5746,1249.0847C602.5773,1249.0847,591.9771,1248.2161,590.1615,1246.7368L590.1615,1246.7368C589.94415,1246.5596,589.6225,1246.2124,589.6225,1245.688L589.6225,1245.688C589.6225,1245.1633,589.94415,1244.8164,590.1615,1244.6392L590.1615,1244.6392C591.9771,1243.1597,602.5773,1242.291,614.5746,1242.291L614.5746,1242.291C626.572,1242.291,637.1722,1243.1597,638.98773,1244.6392L638.9878,1244.6392C639.2052,1244.8164,639.5268,1245.1633,639.5268,1245.688L639.5268,1245.688 M637.60645,1245.688L637.60645,1245.688C637.60645,1246.0063,637.802,1246.1501,637.77466,1246.1279L637.77466,1246.1279C636.63983,1245.2031,627.0479,1244.2114,614.5746,1244.2114L614.5746,1244.2114C602.1013,1244.2114,592.50934,1245.2031,591.37463,1246.1279L591.37463,1246.1279C591.3472,1246.1501,591.54285,1246.0063,591.54285,1245.688L591.54285,1245.688C591.54285,1245.3696,591.3472,1245.2258,591.37463,1245.248L591.37463,1245.248C592.50934,1246.1726,602.1013,1247.1646,614.5746,1247.1646L614.5746,1247.1646C627.0479,1247.1646,636.63995,1246.1726,637.77466,1245.248L637.77466,1245.248C637.802,1245.2258,637.60645,1245.3696,637.60645,1245.688 Z"/>
</g>
<g style="fill:rgb(0,0,0); fill-opacity:1.0; stroke-linejoin: miter">
<path d="M639.734,1243.5105L639.734,1243.5105C639.734,1243.8823,639.5969,1244.2009,639.41656,1244.4502L639.41656,1244.4502C637.83374,1246.6399,627.83606,1247.8406,616.9065,1247.8406L616.9065,1247.8406C605.97705,1247.8406,595.9796,1246.6399,594.3966,1244.4504L594.3966,1244.4504C594.2162,1244.2009,594.0789,1243.8826,594.0789,1243.5105L594.0789,1243.5105C594.0789,1243.1387,594.21606,1242.8203,594.3964,1242.5706L594.3964,1242.5706C595.97925,1240.3813,605.97687,1239.1804,616.9065,1239.1804L616.9065,1239.1804C627.83594,1239.1804,637.8333,1240.3813,639.4163,1242.5706L639.4163,1242.5706C639.5968,1242.8198,639.734,1243.1384,639.734,1243.5105L639.734,1243.5105 M637.8137,1243.5105L637.8137,1243.5105C637.8137,1243.6274,637.859,1243.6941,637.8602,1243.6958L637.8602,1243.6958C637.0086,1242.5178,628.4755,1241.1008,616.9065,1241.1008L616.9065,1241.1008C605.33716,1241.1008,596.8041,1242.5181,595.95264,1243.6958L595.9527,1243.6958C595.954,1243.6941,595.9992,1243.6274,595.9992,1243.5105L595.9992,1243.5105C595.9992,1243.3938,595.9539,1243.3269,595.95264,1243.3252L595.9527,1243.3254C596.8043,1244.5029,605.3375,1245.9202,616.9065,1245.9202L616.9065,1245.9202C628.47577,1245.9202,637.00885,1244.5029,637.8602,1243.3254L637.8602,1243.3254C637.85895,1243.3271,637.8137,1243.3938,637.8137,1243.5105 Z"/>
</g>
<g style="fill:rgb(0,0,0); fill-opacity:1.0; stroke-linejoin: miter">
<path d="M640.67694,1242.9482L640.67694,1242.9482C640.67694,1243.4729,640.3553,1243.8198,640.1379,1243.9971L640.1378,1243.9971C638.32227,1245.4766,627.7221,1246.3452,615.72473,1246.3452L615.72473,1246.3452C603.7274,1246.3452,593.1272,1245.4766,591.31165,1243.9971L591.31165,1243.9971C591.09424,1243.8198,590.7726,1243.4729,590.7726,1242.9482L590.7726,1242.9482C590.7726,1242.4238,591.09424,1242.0767,591.31165,1241.8997L591.31165,1241.8997C593.1272,1240.4202,603.7274,1239.5513,615.72473,1239.5513L615.72473,1239.5513C627.7221,1239.5513,638.32227,1240.4202,640.1378,1241.8997L640.1379,1241.8997C640.35535,1242.0767,640.67694,1242.4238,640.67694,1242.9482L640.67694,1242.9482 M638.7566,1242.9482L638.7566,1242.9482C638.7566,1243.2666,638.9521,1243.4104,638.9248,1243.3882L638.9248,1243.3882C637.79,1242.4634,628.19806,1241.4717,615.72473,1241.4717L615.72473,1241.4717C603.2514,1241.4717,593.6595,1242.4634,592.5247,1243.3882L592.5247,1243.3882C592.4973,1243.4104,592.69293,1243.2666,592.69293,1242.9482L592.69293,1242.9482C592.69293,1242.6299,592.4973,1242.4861,592.5247,1242.5085L592.5247,1242.5085C593.6595,1243.4331,603.2514,1244.4248,615.72473,1244.4248L615.72473,1244.4248C628.19806,1244.4248,637.79004,1243.4331,638.9248,1242.5085L638.9248,1242.5085C638.9521,1242.4861,638.7566,1242.6299,638.7566,1242.9482 Z"/>
</g>
<g style="fill:rgb(0,0,0); fill-opacity:1.0; stroke-linejoin: miter">
<path d="M640.4031,1240.4827L640.4031,1240.4827C640.4031,1241.0071,640.0814,1241.3542,639.864,1241.5312L639.86395,1241.5315C638.04846,1243.0107,627.4483,1243.8794,615.45087,1243.8794L615.45087,1243.8794C603.45355,1243.8794,592.8534,1243.0107,591.0378,1241.5315L591.0378,1241.5315C590.82043,1241.3542,590.4988,1241.0071,590.4988,1240.4827L590.4988,1240.4827C590.4988,1239.958,590.82043,1239.6111,591.0378,1239.4338L591.0378,1239.4338C592.8534,1237.9543,603.45355,1237.0857,615.45087,1237.0857L615.45087,1237.0857C627.4483,1237.0857,638.04846,1237.9543,639.86395,1239.4338L639.864,1239.4338C640.0815,1239.6111,640.4031,1239.958,640.4031,1240.4827L640.4031,1240.4827 M638.4827,1240.4827L638.4827,1240.4827C638.4827,1240.801,638.6783,1240.9448,638.65094,1240.9226L638.65094,1240.9226C637.5161,1239.9978,627.9242,1239.0061,615.45087,1239.0061L615.45087,1239.0061C602.97754,1239.0061,593.3856,1239.9978,592.2509,1240.9226L592.2509,1240.9226C592.2235,1240.9448,592.4191,1240.801,592.4191,1240.4827L592.4191,1240.4827C592.4191,1240.1643,592.2235,1240.0203,592.2509,1240.0427L592.2509,1240.0427C593.3856,1240.9673,602.97754,1241.9592,615.45087,1241.9592L615.45087,1241.9592C627.9242,1241.9592,637.5162,1240.9673,638.65094,1240.0427L638.65094,1240.0427C638.6783,1240.0205,638.4827,1240.1643,638.4827,1240.4827 Z"/>
</g>
<g style="fill:rgb(0,0,0); fill-opacity:1.0; stroke-linejoin: miter">
<path d="M638.92847,1236.607L638.92847,1236.607C638.92847,1237.1315,638.6068,1237.4786,638.38947,1237.6556L638.3894,1237.6559C636.57385,1239.1351,625.9737,1240.0038,613.9763,1240.0038L613.9763,1240.0038C601.97894,1240.0038,591.3788,1239.1351,589.5632,1237.6559L589.5632,1237.6559C589.3458,1237.4786,589.0242,1237.1315,589.0242,1236.607L589.0242,1236.607C589.0242,1236.0824,589.3458,1235.7355,589.5632,1235.5582L589.5632,1235.5582C591.3788,1234.0787,601.97894,1233.2101,613.9763,1233.2101L613.9763,1233.2101C625.9737,1233.2101,636.57385,1234.0787,638.3894,1235.5582L638.38947,1235.5582C638.6069,1235.7355,638.92847,1236.0824,638.92847,1236.607L638.92847,1236.607 M637.0081,1236.607L637.0081,1236.607C637.0081,1236.9254,637.2037,1237.0692,637.17633,1237.047L637.17633,1237.047C636.04156,1236.1222,626.4496,1235.1305,613.9763,1235.1305L613.9763,1235.1305C601.503,1235.1305,591.9111,1236.1222,590.7763,1237.047L590.7763,1237.047C590.7489,1237.0692,590.9445,1236.9254,590.9445,1236.607L590.9445,1236.607C590.9445,1236.2887,590.7489,1236.1447,590.7763,1236.1671L590.7763,1236.1671C591.9111,1237.0917,601.503,1238.0836,613.9763,1238.0836L613.9763,1238.0836C626.4496,1238.0836,636.0416,1237.0917,637.17633,1236.1671L637.17633,1236.1671C637.2037,1236.1449,637.0081,1236.2887,637.0081,1236.607 Z"/>
</g>
<g style="fill:rgb(254,186,155); fill-opacity:1.0; stroke-linejoin: miter">
<path d="M536.4957,1152.3082L529.91925,1152.0453L527.6493,1154.2899L536.8759,1154.6976L540.8149,1152.4618L536.4957,1152.3082 Z"/>
</g>
<g style="fill:rgb(255,255,255); fill-opacity:1.0; stroke-linejoin: miter">
<path d="M563.48206,1158.3456L557.92163,1158.712L536.0769,1149.7826L534.02795,1156.0548C545.5855,1162.2592,552.92267,1165.9806,556.02856,1167.246C558.6765,1168.3243,560.12823,1168.8256,560.3727,1168.8868C561.94574,1169.2806,563.1248,1169.4794,563.9605,1169.3986C565.065,1169.2916,565.99536,1168.7289,566.7452,1167.6359L563.48206,1158.3456 Z"/>
</g>
<g style="fill:rgb(254,186,155); fill-opacity:1.0; stroke-linejoin: miter">
<path d="M543.4729,1163.5565L538.4378,1159.3173L535.26843,1159.6996L542.3089,1165.6774L546.7915,1166.3251L543.4729,1163.5565 Z"/>
</g>
<g style="fill:rgb(255,255,255); fill-opacity:1.0; stroke-linejoin: miter">
<path d="M569.7539,1164.4489L564.3393,1163.1317L541.2844,1168.1713L540.3446,1161.6395C552.7971,1157.516,560.6648,1155.1117,563.94214,1154.3995C566.7361,1153.7921,568.25256,1153.5477,568.50385,1153.5297C570.1213,1153.4122,571.31683,1153.4193,572.12616,1153.643C573.1959,1153.9381,574.0156,1154.6522,574.5665,1155.8575L569.7539,1164.4489 Z"/>
</g>
<g style="fill:rgb(254,186,155); fill-opacity:0.99607843; stroke-linejoin: miter">
<path d="M535.2985,1159.6859L535.8669,1161.588L536.4354,1163.4899Q538.80676,1165.0546,541.1781,1166.6195Q540.9517,1165.4022,540.72534,1164.1847L535.2985,1159.6859"/>
</g>
<g style="fill:rgb(254,186,155); fill-opacity:0.99607843; stroke-linejoin: miter">
<path d="M533.83734,1162.5104L533.83734,1162.5104L533.83734,1162.5104L533.83734,1162.5104"/>
</g>
</g>
</svg>